<svg width="624" height="628" viewBox="0 0 624 628" fill="none" xmlns="http://www.w3.org/2000/svg">
<path style="mix-blend-mode:multiply" opacity="0.68" d="M312.644 507.284C418.753 507.284 504.772 420.961 504.772 314.477C504.772 207.992 418.753 121.67 312.644 121.67C206.534 121.67 120.516 207.992 120.516 314.477C120.516 420.961 206.534 507.284 312.644 507.284Z" fill="url(#paint0_linear_3_6134)"/>
<path d="M312.642 507.283C418.751 507.283 504.77 420.96 504.77 314.476C504.77 207.992 418.751 121.669 312.642 121.669C206.532 121.669 120.514 207.992 120.514 314.476C120.514 420.96 206.532 507.283 312.642 507.283Z" fill="#DDC3A3"/>
<g opacity="0.89">
<path opacity="0.89" d="M487.449 298.283C487.147 294.382 486.209 290.557 484.672 286.961C484.272 285.113 483.449 283.384 482.267 281.912C481.086 280.44 479.578 279.266 477.864 278.483C476.204 277.693 474.335 277.459 472.532 277.813C470.729 278.167 469.086 279.092 467.844 280.452C463.007 285.497 460.363 292.265 460.492 299.268C458.368 308.675 459.566 323.826 471.819 324.702C485.107 325.631 488.211 308.238 487.449 298.283Z" fill="#D8B58C"/>
<path opacity="0.89" d="M438.597 237.243L437.29 237.79C434.966 238.01 432.709 238.695 430.652 239.803C428.594 240.911 426.778 242.421 425.31 244.244C423.939 246.23 423.353 248.656 423.665 251.052C423.977 253.448 425.165 255.642 426.998 257.207C428.928 259.083 431.48 260.176 434.164 260.277C436.847 260.378 439.474 259.479 441.538 257.754L441.974 257.371C445.133 254.936 447.455 251.57 448.618 247.744C449.138 246.322 449.25 244.781 448.941 243.297C448.633 241.813 447.915 240.446 446.871 239.352C445.827 238.258 444.498 237.48 443.035 237.107C441.572 236.734 440.035 236.781 438.597 237.243Z" fill="#D8B58C"/>
<path opacity="0.89" d="M289.766 340.076C282.853 344.013 277.722 350.48 275.443 358.126C270.433 376.285 295.048 376.668 305.722 371.198C318.138 364.908 329.52 343.193 312.584 334.661C305.722 331.16 297.825 334.004 291.345 339.255L289.766 340.076Z" fill="#D8B58C"/>
<path opacity="0.89" d="M337.636 362.774C339.546 361.972 341.177 360.619 342.321 358.886C343.465 357.153 344.071 355.117 344.062 353.038C344.63 351.241 344.534 349.299 343.79 347.568C343.624 346.733 343.35 345.924 342.973 345.162C343.242 344.275 343.263 343.331 343.033 342.433C342.802 341.536 342.329 340.719 341.666 340.075C341.159 339.562 340.557 339.155 339.893 338.877C339.23 338.6 338.518 338.457 337.799 338.457C337.08 338.457 336.368 338.6 335.705 338.877C335.041 339.155 334.439 339.562 333.933 340.075C333.066 341.212 332.266 342.399 331.537 343.63C330.446 344.612 329.616 345.851 329.122 347.236C328.628 348.62 328.484 350.107 328.705 351.561C328.705 352.382 328.432 353.202 328.378 354.022C327.997 359.437 331.645 364.798 337.636 362.774Z" fill="#D8B58C"/>
<path opacity="0.89" d="M184.604 321.312C196.53 311.357 197.892 285.54 192.174 272.085C189.723 266.341 184.767 259.833 177.797 260.598C175.956 260.971 174.21 261.716 172.665 262.788C171.121 263.86 169.809 265.236 168.811 266.834C157.92 269.24 153.4 294.839 154.434 303.043C156.014 316.827 170.826 332.798 184.604 321.312Z" fill="#D8B58C"/>
<path opacity="0.89" d="M279.744 214.542C281.472 214.929 283.267 214.887 284.975 214.42C286.684 213.953 288.252 213.075 289.547 211.862C291.447 210.463 292.934 208.573 293.849 206.392C296.354 200.156 296.789 188.998 289.165 186.154C274.08 180.684 264.387 211.151 279.744 214.542Z" fill="#D8B58C"/>
<path opacity="0.89" d="M192.722 357.576C184.717 351.669 176.385 351.505 171.484 359.108C166.038 361.843 166.038 376.72 166.038 380.987C166.163 386.729 168.337 392.236 172.166 396.502C175.994 400.769 181.222 403.513 186.895 404.233C188.344 404.37 189.803 404.37 191.252 404.233C193.189 404.868 195.274 404.889 197.223 404.292C199.171 403.695 200.89 402.509 202.144 400.896C202.876 399.874 203.411 398.724 203.723 397.505C206.166 394.391 207.473 390.53 207.426 386.566C207.216 380.952 205.791 375.451 203.252 370.445C200.713 365.439 197.12 361.048 192.722 357.576Z" fill="#D8B58C"/>
<path opacity="0.89" d="M326.74 265.192C329.754 270.264 334.321 274.22 339.759 276.468C345.198 278.716 351.215 279.135 356.91 277.663C363.757 275.649 369.75 271.419 373.955 265.629C377.527 261.41 380.23 256.52 381.906 251.244C383.251 247.16 383.618 242.814 382.977 238.561C382.336 234.308 380.705 230.266 378.216 226.765C375.728 223.264 372.452 220.402 368.656 218.411C364.859 216.42 360.648 215.357 356.365 215.308C350.97 215.327 345.668 216.72 340.954 219.356C337.196 221.352 333.906 224.132 331.304 227.509C328.703 230.886 326.849 234.782 325.869 238.937C325.518 240.502 325.299 242.094 325.215 243.696C323.883 247.172 323.33 250.899 323.593 254.614C323.857 258.329 324.931 261.94 326.74 265.192Z" fill="#D8B58C"/>
<path opacity="0.89" d="M402.979 366.549C401.087 366.549 399.273 367.304 397.935 368.648C396.597 369.992 395.845 371.814 395.845 373.715C395.845 375.615 396.597 377.437 397.935 378.781C399.273 380.125 401.087 380.88 402.979 380.88C404.871 380.88 406.686 380.125 408.024 378.781C409.362 377.437 410.113 375.615 410.113 373.715C410.113 371.814 409.362 369.992 408.024 368.648C406.686 367.304 404.871 366.549 402.979 366.549Z" fill="#D8B58C"/>
<path opacity="0.89" d="M359.415 437.925C353.195 432.156 345.009 429.004 336.543 429.119C334.236 429.224 331.941 429.517 329.681 429.994C326.187 431.155 322.964 433.016 320.206 435.464C317.596 437.923 315.708 441.054 314.747 444.517C313.787 447.979 313.791 451.64 314.76 455.1C315.654 458.479 317.418 461.563 319.874 464.04C322.331 466.517 325.394 468.301 328.756 469.212H329.899C331.359 469.852 332.871 470.365 334.419 470.743C339.701 471.837 345.149 471.837 350.43 470.743C353.715 469.82 356.707 468.059 359.113 465.631C361.52 463.203 363.261 460.191 364.165 456.887C365.07 453.583 365.108 450.101 364.275 446.778C363.443 443.455 361.769 440.406 359.415 437.925Z" fill="#D8B58C"/>
<path opacity="0.89" d="M303.162 452.145C303.01 451.468 302.791 450.809 302.509 450.176V449.848L302.018 449.465C301.739 448.845 301.392 448.258 300.984 447.714L300.439 446.894L300.004 446.402C298.138 444.188 295.751 442.477 293.059 441.427C290.367 440.376 287.456 440.018 284.592 440.385C282.256 440.749 280.024 441.609 278.046 442.909C276.067 444.209 274.388 445.917 273.12 447.921C271.852 449.925 271.024 452.177 270.692 454.528C270.36 456.879 270.532 459.274 271.195 461.553C271.789 463.615 272.811 465.528 274.193 467.166C275.576 468.803 277.288 470.128 279.218 471.053C281.147 471.978 283.249 472.482 285.386 472.532C287.523 472.582 289.647 472.177 291.617 471.344C292.49 470.886 293.311 470.336 294.068 469.703C296.671 468.698 298.95 466.995 300.657 464.78C301.981 463.088 302.892 461.109 303.317 459.001C303.743 456.892 303.671 454.713 303.108 452.637L303.162 452.145Z" fill="#D8B58C"/>
<path opacity="0.89" d="M304.253 420.642C302.495 420.642 300.777 421.167 299.316 422.149C297.855 423.131 296.718 424.527 296.047 426.159C295.377 427.791 295.204 429.587 295.551 431.318C295.898 433.049 296.749 434.637 297.996 435.882C299.243 437.126 300.83 437.971 302.555 438.309C304.281 438.647 306.067 438.462 307.688 437.779C309.309 437.096 310.692 435.945 311.661 434.471C312.629 432.998 313.141 431.269 313.13 429.503C313.101 427.153 312.155 424.907 310.495 423.25C308.835 421.593 306.594 420.657 304.253 420.642Z" fill="#D8B58C"/>
<path opacity="0.89" d="M445.027 358.833C442.534 359.308 440.285 360.641 438.667 362.603C437.049 364.566 436.164 367.034 436.164 369.581C436.164 372.129 437.049 374.597 438.667 376.559C440.285 378.521 442.534 379.855 445.027 380.329C458.805 380.329 458.859 358.833 445.027 358.833Z" fill="#D8B58C"/>
<path opacity="0.89" d="M441.104 387.605C438.403 387.605 435.812 388.683 433.903 390.601C431.993 392.519 430.92 395.121 430.92 397.833C430.92 400.546 431.993 403.148 433.903 405.066C435.812 406.984 438.403 408.062 441.104 408.062C443.804 408.062 446.395 406.984 448.305 405.066C450.214 403.148 451.287 400.546 451.287 397.833C451.287 395.121 450.214 392.519 448.305 390.601C446.395 388.683 443.804 387.605 441.104 387.605Z" fill="#D8B58C"/>
<path opacity="0.89" d="M407.229 410.25C405.784 410.25 404.399 410.827 403.378 411.852C402.356 412.878 401.783 414.269 401.783 415.72C401.783 417.171 402.356 418.562 403.378 419.588C404.399 420.613 405.784 421.19 407.229 421.19C408.673 421.19 410.058 420.613 411.079 419.588C412.101 418.562 412.674 417.171 412.674 415.72C412.674 414.269 412.101 412.878 411.079 411.852C410.058 410.827 408.673 410.25 407.229 410.25Z" fill="#D8B58C"/>
<path opacity="0.89" d="M425.095 357.578C423.376 357.578 421.728 358.263 420.512 359.484C419.297 360.705 418.614 362.36 418.614 364.087C418.614 365.813 419.297 367.468 420.512 368.689C421.728 369.91 423.376 370.595 425.095 370.595C426.813 370.595 428.462 369.91 429.677 368.689C430.892 367.468 431.575 365.813 431.575 364.087C431.575 362.36 430.892 360.705 429.677 359.484C428.462 358.263 426.813 357.578 425.095 357.578Z" fill="#D8B58C"/>
<path opacity="0.89" d="M420.954 383.064C419.403 383.064 417.886 383.526 416.597 384.391C415.307 385.257 414.302 386.487 413.709 387.926C413.115 389.365 412.96 390.949 413.262 392.477C413.565 394.005 414.312 395.408 415.409 396.509C416.505 397.611 417.903 398.361 419.424 398.665C420.945 398.969 422.522 398.813 423.955 398.217C425.388 397.621 426.612 396.611 427.474 395.316C428.336 394.021 428.796 392.498 428.796 390.94C428.767 388.86 427.932 386.873 426.468 385.402C425.003 383.931 423.025 383.092 420.954 383.064Z" fill="#D8B58C"/>
<path opacity="0.89" d="M375.754 388.972C373.869 388.972 372.026 389.533 370.459 390.585C368.892 391.637 367.67 393.132 366.949 394.881C366.228 396.63 366.039 398.555 366.407 400.411C366.774 402.268 367.682 403.974 369.015 405.312C370.348 406.651 372.046 407.563 373.895 407.932C375.743 408.301 377.659 408.112 379.401 407.387C381.142 406.663 382.631 405.436 383.678 403.862C384.725 402.288 385.284 400.437 385.284 398.544C385.256 396.014 384.243 393.596 382.461 391.807C380.68 390.018 378.273 389 375.754 388.972Z" fill="#D8B58C"/>
<path opacity="0.89" d="M423.026 292.594C416.909 292.684 411.06 295.132 406.689 299.431C404.542 301.585 402.838 304.143 401.676 306.959C400.514 309.774 399.916 312.792 399.916 315.84C399.916 318.888 400.514 321.906 401.676 324.722C402.838 327.538 404.542 330.095 406.689 332.249C411.034 336.578 416.906 339.007 423.026 339.007C429.146 339.007 435.018 336.578 439.364 332.249C443.653 327.865 446.092 321.987 446.171 315.84C446.15 309.682 443.702 303.782 439.364 299.431C434.992 295.132 429.143 292.684 423.026 292.594Z" fill="#D8B58C"/>
<path opacity="0.89" d="M385.287 308.566C386.818 308.566 388.286 307.956 389.368 306.868C390.451 305.781 391.059 304.306 391.059 302.769C391.059 301.231 390.451 299.756 389.368 298.669C388.286 297.582 386.818 296.971 385.287 296.971C383.756 296.971 382.287 297.582 381.205 298.669C380.122 299.756 379.514 301.231 379.514 302.769C379.514 304.306 380.122 305.781 381.205 306.868C382.287 307.956 383.756 308.566 385.287 308.566Z" fill="#D8B58C"/>
<path opacity="0.89" d="M382.507 318.195C365.244 318.195 365.189 345.216 382.507 345.216C399.825 345.216 399.879 318.195 382.507 318.195Z" fill="#D8B58C"/>
<path opacity="0.89" d="M423.024 221.056C425.108 222.119 427.478 222.48 429.783 222.086C432.087 221.692 434.204 220.564 435.821 218.868C437.044 217.673 438.139 216.353 439.089 214.93C439.486 214.36 439.832 213.756 440.124 213.125C440.45 212.414 440.723 211.703 440.995 210.937C441.008 210.791 441.008 210.645 440.995 210.499C441.467 209.519 441.713 208.444 441.713 207.354C441.713 206.265 441.467 205.19 440.995 204.209C440.431 202.859 439.486 201.705 438.276 200.888C437.066 200.072 435.645 199.629 434.188 199.615C432.445 199.542 430.709 199.863 429.107 200.554C427.505 201.245 426.077 202.289 424.93 203.607C424.549 204.1 424.167 204.592 423.786 205.194L422.044 206.506C420.907 207.301 419.974 208.355 419.321 209.581C418.668 210.807 418.313 212.172 418.286 213.562C418.355 215.118 418.829 216.629 419.66 217.943C420.492 219.258 421.651 220.331 423.024 221.056Z" fill="#D8B58C"/>
<path opacity="0.89" d="M399.987 192.665C400.538 193.42 401.272 194.022 402.12 194.411C402.968 194.8 403.901 194.964 404.83 194.887C405.759 194.81 406.653 194.495 407.426 193.972C408.199 193.449 408.826 192.735 409.245 191.899C410.935 188.722 411.566 185.085 411.046 181.522C410.527 177.958 408.884 174.656 406.359 172.099C405.463 171.229 404.36 170.606 403.155 170.29C401.949 169.974 400.683 169.976 399.479 170.295C398.274 170.614 397.172 171.239 396.279 172.111C395.385 172.983 394.731 174.071 394.378 175.271C393.536 177.509 393.094 179.88 393.071 182.272C393.095 183.88 393.445 185.466 394.101 186.934C394.756 188.401 395.703 189.718 396.883 190.805C397.734 191.692 398.806 192.335 399.987 192.665Z" fill="#D8B58C"/>
<path opacity="0.89" d="M275.443 493.718C276.974 493.718 278.442 493.107 279.524 492.02C280.607 490.932 281.215 489.458 281.215 487.92C281.215 486.382 280.607 484.908 279.524 483.82C278.442 482.733 276.974 482.122 275.443 482.122C273.912 482.122 272.443 482.733 271.361 483.82C270.278 484.908 269.67 486.382 269.67 487.92C269.67 489.458 270.278 490.932 271.361 492.02C272.443 493.107 273.912 493.718 275.443 493.718Z" fill="#D8B58C"/>
<path opacity="0.89" d="M246.581 482.886C248.022 482.746 249.36 482.072 250.333 480.995C251.306 479.918 251.845 478.516 251.845 477.061C251.845 475.607 251.306 474.205 250.333 473.128C249.36 472.051 248.022 471.376 246.581 471.236C245.14 471.376 243.802 472.051 242.829 473.128C241.856 474.205 241.316 475.607 241.316 477.061C241.316 478.516 241.856 479.918 242.829 480.995C243.802 482.072 245.14 482.746 246.581 482.886Z" fill="#D8B58C"/>
<path opacity="0.89" d="M223.925 380.713C225.5 380.713 227.009 380.085 228.123 378.967C229.236 377.849 229.861 376.332 229.861 374.751C229.861 373.17 229.236 371.653 228.123 370.535C227.009 369.417 225.5 368.789 223.925 368.789C222.351 368.789 220.841 369.417 219.728 370.535C218.615 371.653 217.989 373.17 217.989 374.751C217.989 376.332 218.615 377.849 219.728 378.967C220.841 380.085 222.351 380.713 223.925 380.713Z" fill="#D8B58C"/>
<path opacity="0.89" d="M143.599 320.273C144.816 320.144 145.944 319.567 146.763 318.653C147.582 317.739 148.036 316.553 148.036 315.323C148.036 314.093 147.582 312.906 146.763 311.992C145.944 311.078 144.816 310.501 143.599 310.373C142.381 310.501 141.254 311.078 140.434 311.992C139.615 312.906 139.162 314.093 139.162 315.323C139.162 316.553 139.615 317.739 140.434 318.653C141.254 319.567 142.381 320.144 143.599 320.273Z" fill="#D8B58C"/>
<path opacity="0.89" d="M469.53 231.716C471.178 231.716 472.789 231.225 474.159 230.305C475.529 229.386 476.597 228.079 477.228 226.55C477.858 225.021 478.023 223.338 477.702 221.715C477.38 220.091 476.587 218.6 475.421 217.43C474.256 216.259 472.772 215.462 471.155 215.139C469.539 214.816 467.864 214.982 466.341 215.616C464.819 216.249 463.517 217.322 462.602 218.698C461.686 220.074 461.198 221.692 461.198 223.347C461.226 225.558 462.113 227.67 463.669 229.233C465.226 230.797 467.329 231.687 469.53 231.716Z" fill="#D8B58C"/>
<path opacity="0.89" d="M455.643 247.965C456.861 247.836 457.988 247.259 458.807 246.345C459.627 245.431 460.08 244.244 460.08 243.014C460.08 241.785 459.627 240.598 458.807 239.684C457.988 238.77 456.861 238.193 455.643 238.064C454.425 238.193 453.298 238.77 452.479 239.684C451.66 240.598 451.206 241.785 451.206 243.014C451.206 244.244 451.66 245.431 452.479 246.345C453.298 247.259 454.425 247.836 455.643 247.965Z" fill="#D8B58C"/>
<path opacity="0.89" d="M453.088 271.539C454.265 271.243 455.311 270.56 456.057 269.598C456.804 268.637 457.21 267.453 457.21 266.233C457.21 265.014 456.804 263.83 456.057 262.869C455.311 261.907 454.265 261.224 453.088 260.928C451.91 261.224 450.865 261.907 450.118 262.869C449.372 263.83 448.966 265.014 448.966 266.233C448.966 267.453 449.372 268.637 450.118 269.598C450.865 270.56 451.91 271.243 453.088 271.539Z" fill="#D8B58C"/>
<path opacity="0.89" d="M411.373 297.572C412.817 297.572 414.202 296.995 415.224 295.97C416.245 294.944 416.819 293.553 416.819 292.102C416.819 290.651 416.245 289.26 415.224 288.234C414.202 287.208 412.817 286.632 411.373 286.632C409.928 286.632 408.543 287.208 407.522 288.234C406.501 289.26 405.927 290.651 405.927 292.102C405.927 293.553 406.501 294.944 407.522 295.97C408.543 296.995 409.928 297.572 411.373 297.572Z" fill="#D8B58C"/>
<path opacity="0.89" d="M361.433 340.566C363.35 340.566 365.224 339.995 366.818 338.925C368.412 337.856 369.655 336.335 370.388 334.556C371.122 332.777 371.314 330.819 370.94 328.931C370.566 327.042 369.643 325.307 368.287 323.946C366.931 322.584 365.204 321.657 363.324 321.281C361.444 320.905 359.494 321.098 357.723 321.835C355.952 322.572 354.438 323.82 353.373 325.421C352.308 327.022 351.739 328.905 351.739 330.83C351.768 333.403 352.798 335.863 354.61 337.683C356.422 339.503 358.871 340.538 361.433 340.566Z" fill="#D8B58C"/>
<path opacity="0.89" d="M346.999 363.976C350.009 363.947 352.888 362.734 355.016 360.596C357.144 358.458 358.352 355.567 358.381 352.544C358.381 350.283 357.713 348.073 356.463 346.193C355.212 344.313 353.434 342.848 351.355 341.983C349.275 341.117 346.987 340.891 344.779 341.332C342.571 341.773 340.543 342.862 338.951 344.461C337.359 346.059 336.275 348.096 335.836 350.314C335.397 352.531 335.622 354.83 336.484 356.919C337.345 359.008 338.804 360.793 340.676 362.049C342.548 363.305 344.748 363.976 346.999 363.976Z" fill="#D8B58C"/>
<path opacity="0.89" d="M325.38 380.659C329.112 380.631 332.683 379.129 335.322 376.478C337.961 373.828 339.456 370.241 339.484 366.493C339.495 363.675 338.672 360.918 337.121 358.571C335.569 356.224 333.358 354.393 330.769 353.31C328.179 352.227 325.328 351.94 322.576 352.487C319.825 353.034 317.297 354.39 315.313 356.382C313.33 358.374 311.98 360.913 311.436 363.677C310.891 366.441 311.176 369.305 312.254 371.905C313.333 374.506 315.156 376.727 317.493 378.285C319.83 379.844 322.575 380.67 325.38 380.659Z" fill="#D8B58C"/>
<path opacity="0.89" d="M317.156 495.357C319.943 495.346 322.665 494.506 324.977 492.943C327.289 491.38 329.089 489.163 330.148 486.574C331.207 483.984 331.479 481.138 330.928 478.393C330.378 475.649 329.03 473.13 327.055 471.154C325.081 469.178 322.567 467.834 319.833 467.292C317.098 466.75 314.265 467.034 311.691 468.108C309.117 469.181 306.917 470.997 305.37 473.326C303.822 475.654 302.997 478.391 302.997 481.19C303.039 484.944 304.546 488.53 307.194 491.179C309.842 493.829 313.419 495.328 317.156 495.357Z" fill="#D8B58C"/>
<path opacity="0.89" d="M319.717 449.469C322.297 449.28 324.709 448.117 326.47 446.215C328.231 444.312 329.209 441.811 329.209 439.214C329.209 436.616 328.231 434.115 326.47 432.212C324.709 430.31 322.297 429.147 319.717 428.958C318.314 428.855 316.904 429.044 315.576 429.512C314.249 429.981 313.031 430.72 312.001 431.682C310.97 432.644 310.148 433.81 309.585 435.106C309.023 436.402 308.733 437.8 308.733 439.214C308.733 440.627 309.023 442.025 309.585 443.321C310.148 444.617 310.97 445.783 312.001 446.745C313.031 447.707 314.249 448.446 315.576 448.915C316.904 449.384 318.314 449.572 319.717 449.469Z" fill="#D8B58C"/>
<path opacity="0.89" d="M277.731 434.098C279.457 434.098 281.143 433.583 282.577 432.619C284.011 431.655 285.128 430.285 285.786 428.683C286.444 427.081 286.613 425.318 286.273 423.619C285.932 421.92 285.097 420.361 283.873 419.139C282.649 417.917 281.091 417.088 279.397 416.757C277.703 416.425 275.95 416.606 274.359 417.277C272.767 417.948 271.41 419.078 270.46 420.524C269.509 421.971 269.007 423.668 269.018 425.401C269.046 427.708 269.975 429.912 271.604 431.539C273.234 433.165 275.434 434.084 277.731 434.098Z" fill="#D8B58C"/>
<path opacity="0.89" d="M249.14 415.169C251.899 415.169 254.545 414.069 256.495 412.109C258.446 410.15 259.542 407.493 259.542 404.722C259.542 401.951 258.446 399.294 256.495 397.335C254.545 395.376 251.899 394.275 249.14 394.275C235.798 394.275 235.798 415.169 249.14 415.169Z" fill="#D8B58C"/>
<path opacity="0.89" d="M408.426 413.039C411.296 413.05 414.104 412.205 416.494 410.61C418.885 409.016 420.75 406.744 421.853 404.083C422.956 401.422 423.248 398.493 422.691 395.665C422.133 392.838 420.753 390.24 418.724 388.202C416.694 386.164 414.108 384.777 411.293 384.218C408.478 383.658 405.561 383.951 402.912 385.059C400.263 386.167 398.001 388.04 396.413 390.441C394.826 392.842 393.984 395.663 393.995 398.545C394.051 402.371 395.589 406.025 398.284 408.732C400.978 411.438 404.616 412.983 408.426 413.039Z" fill="#D8B58C"/>
<path opacity="0.89" d="M373.247 380.715C376.023 380.632 378.663 379.488 380.627 377.515C382.591 375.543 383.73 372.891 383.812 370.103C383.812 368.005 383.193 365.953 382.032 364.208C380.871 362.463 379.221 361.103 377.29 360.3C375.36 359.497 373.236 359.287 371.186 359.696C369.137 360.105 367.255 361.116 365.777 362.6C364.299 364.084 363.293 365.975 362.886 368.033C362.478 370.092 362.687 372.225 363.487 374.164C364.286 376.103 365.641 377.76 367.378 378.926C369.115 380.092 371.158 380.715 373.247 380.715Z" fill="#D8B58C"/>
<path opacity="0.89" d="M215.702 286.686C217.946 286.658 220.091 285.75 221.678 284.156C223.265 282.561 224.169 280.408 224.197 278.153C224.156 275.898 223.249 273.746 221.666 272.146C220.084 270.546 217.947 269.622 215.702 269.566C213.559 269.738 211.56 270.715 210.102 272.301C208.643 273.887 207.834 275.967 207.834 278.126C207.834 280.285 208.643 282.365 210.102 283.951C211.56 285.537 213.559 286.514 215.702 286.686Z" fill="#D8B58C"/>
<path opacity="0.89" d="M140.005 279.304C141.183 279.008 142.228 278.325 142.975 277.363C143.721 276.402 144.127 275.218 144.127 273.999C144.127 272.779 143.721 271.595 142.975 270.634C142.228 269.673 141.183 268.989 140.005 268.693C138.828 268.989 137.782 269.673 137.036 270.634C136.289 271.595 135.883 272.779 135.883 273.999C135.883 275.218 136.289 276.402 137.036 277.363C137.782 278.325 138.828 279.008 140.005 279.304Z" fill="#D8B58C"/>
<path opacity="0.89" d="M221.365 343.847C223.013 343.847 224.624 343.356 225.994 342.436C227.364 341.517 228.432 340.21 229.062 338.681C229.693 337.151 229.858 335.469 229.537 333.845C229.215 332.222 228.422 330.731 227.256 329.561C226.091 328.39 224.606 327.593 222.99 327.27C221.374 326.947 219.699 327.113 218.176 327.746C216.654 328.38 215.352 329.453 214.437 330.829C213.521 332.205 213.033 333.823 213.033 335.478C213.047 337.693 213.929 339.813 215.489 341.38C217.048 342.946 219.159 343.832 221.365 343.847Z" fill="#D8B58C"/>
<path opacity="0.89" d="M245.873 376.34C248.027 376.34 250.132 375.698 251.924 374.496C253.715 373.294 255.111 371.585 255.935 369.587C256.759 367.588 256.975 365.388 256.555 363.266C256.135 361.144 255.097 359.195 253.574 357.665C252.051 356.135 250.11 355.093 247.997 354.671C245.885 354.249 243.695 354.466 241.705 355.293C239.714 356.121 238.013 357.524 236.817 359.323C235.62 361.122 234.981 363.237 234.981 365.4C235.05 368.28 236.22 371.022 238.248 373.059C240.275 375.095 243.006 376.27 245.873 376.34Z" fill="#D8B58C"/>
</g>
<g style="mix-blend-mode:multiply" opacity="0.44">
<g style="mix-blend-mode:multiply" opacity="0.44">
<path d="M349.726 280.672C345.661 281.786 342.199 284.471 340.097 288.14C337.995 291.808 337.424 296.163 338.508 300.253C338.974 301.781 339.613 303.249 340.414 304.629C342.202 307.468 344.803 309.699 347.874 311.029C351.055 312.471 354.634 312.761 358.004 311.849C360.69 310.977 363.106 309.419 365.015 307.33C366.923 305.24 368.26 302.689 368.895 299.925V300.582V300.253C369.661 297.547 369.691 294.684 368.983 291.962C368.274 289.24 366.852 286.758 364.865 284.774C362.873 282.891 360.449 281.531 357.808 280.816C355.167 280.1 352.391 280.051 349.726 280.672Z" fill="#CE9B78"/>
</g>
<g style="mix-blend-mode:multiply" opacity="0.44">
<path d="M260.358 402.923C257.707 402.864 255.089 403.524 252.779 404.833C250.47 406.142 248.554 408.052 247.233 410.362C246.17 412.196 245.551 414.256 245.428 416.375C245.305 418.495 245.681 420.613 246.525 422.559C247.104 424.226 248.076 425.727 249.357 426.935C251.717 429.231 254.774 430.667 258.041 431.014C261.309 431.361 264.597 430.599 267.383 428.849C269.77 427.165 271.653 424.857 272.829 422.176C274.091 419.339 274.341 416.152 273.537 413.151C272.683 410.275 270.952 407.74 268.587 405.905C266.223 404.07 263.344 403.027 260.358 402.923Z" fill="#CE9B78"/>
</g>
<g style="mix-blend-mode:multiply" opacity="0.44">
<path d="M231.558 414.355C231.568 411.6 230.763 408.905 229.245 406.61C227.727 404.316 225.564 402.527 223.031 401.47C220.498 400.414 217.71 400.137 215.02 400.676C212.33 401.215 209.861 402.545 207.925 404.496C205.989 406.448 204.675 408.934 204.15 411.637C203.624 414.341 203.91 417.141 204.972 419.681C206.034 422.22 207.824 424.386 210.114 425.902C212.404 427.417 215.091 428.215 217.834 428.193C221.461 428.123 224.919 426.641 227.48 424.059C230.04 421.478 231.502 417.998 231.558 414.355Z" fill="#CE9B78"/>
</g>
<g style="mix-blend-mode:multiply" opacity="0.44">
<path d="M164.192 365.726C166.084 365.726 167.899 364.971 169.237 363.627C170.575 362.283 171.326 360.461 171.326 358.561C171.326 356.66 170.575 354.838 169.237 353.494C167.899 352.15 166.084 351.395 164.192 351.395C162.3 351.395 160.486 352.15 159.148 353.494C157.81 354.838 157.058 356.66 157.058 358.561C157.058 360.461 157.81 362.283 159.148 363.627C160.486 364.971 162.3 365.726 164.192 365.726Z" fill="#CE9B78"/>
</g>
<g style="mix-blend-mode:multiply" opacity="0.44">
<path d="M196.046 423.765C178.946 423.765 178.946 450.457 196.046 450.457C213.145 450.457 212.928 423.765 196.046 423.765Z" fill="#CE9B78"/>
</g>
<g style="mix-blend-mode:multiply" opacity="0.44">
<path d="M226 440.387C224.686 440.387 223.425 440.911 222.496 441.845C221.567 442.778 221.045 444.044 221.045 445.364C221.045 446.684 221.567 447.95 222.496 448.884C223.425 449.817 224.686 450.342 226 450.342C227.315 450.342 228.575 449.817 229.504 448.884C230.434 447.95 230.956 446.684 230.956 445.364C230.956 444.044 230.434 442.778 229.504 441.845C228.575 440.911 227.315 440.387 226 440.387Z" fill="#CE9B78"/>
</g>
<g style="mix-blend-mode:multiply" opacity="0.44">
<path d="M356.046 382.577C354.329 381.324 352.285 380.601 350.165 380.499C348.331 380.301 346.477 380.487 344.719 381.046L343.739 381.483C341.946 381.81 340.239 382.503 338.725 383.52C337.21 384.537 335.92 385.856 334.934 387.395C333.949 388.933 333.288 390.66 332.995 392.465C332.701 394.271 332.781 396.119 333.228 397.892C333.881 400.069 335.085 402.038 336.723 403.607C338.362 405.176 340.377 406.291 342.573 406.842C344.769 407.393 347.07 407.363 349.25 406.753C351.43 406.143 353.416 404.974 355.011 403.362C357.052 401.229 358.563 398.643 359.423 395.814C360.076 393.137 360.076 390.341 359.423 387.664C358.943 385.616 357.744 383.81 356.046 382.577Z" fill="#CE9B78"/>
</g>
<g style="mix-blend-mode:multiply" opacity="0.44">
<path d="M447.588 288.439C448.916 285.718 449.188 282.598 448.351 279.687C447.397 276.379 445.197 273.574 442.218 271.869C439.239 270.163 435.715 269.691 432.395 270.553C429.688 271.393 427.222 272.875 425.206 274.874C423.7 276.457 422.597 278.382 421.989 280.484C421.382 282.587 421.287 284.805 421.715 286.952C422.142 289.099 423.079 291.111 424.445 292.817C425.811 294.523 427.567 295.873 429.563 296.753C431.46 297.641 433.541 298.065 435.633 297.989C437.725 297.913 439.769 297.339 441.598 296.315C443.07 295.471 444.358 294.339 445.387 292.986C446.416 291.633 447.164 290.087 447.588 288.439Z" fill="#CE9B78"/>
</g>
<g style="mix-blend-mode:multiply" opacity="0.44">
<path d="M407.945 236.531C405.375 236.531 402.909 237.556 401.091 239.382C399.273 241.208 398.252 243.684 398.252 246.267C398.252 248.849 399.273 251.325 401.091 253.151C402.909 254.977 405.375 256.003 407.945 256.003C410.516 256.003 412.982 254.977 414.8 253.151C416.618 251.325 417.639 248.849 417.639 246.267C417.639 243.684 416.618 241.208 414.8 239.382C412.982 237.556 410.516 236.531 407.945 236.531Z" fill="#CE9B78"/>
</g>
<g style="mix-blend-mode:multiply" opacity="0.44">
<path d="M375.213 228.438C377.876 228.438 380.478 227.645 382.692 226.158C384.905 224.671 386.629 222.557 387.645 220.086C388.662 217.614 388.925 214.895 388.402 212.272C387.878 209.65 386.592 207.243 384.705 205.356C382.818 203.469 380.416 202.186 377.804 201.671C375.191 201.156 372.484 201.431 370.028 202.462C367.571 203.493 365.474 205.233 364.002 207.462C362.531 209.691 361.751 212.309 361.762 214.983C361.79 218.552 363.219 221.966 365.736 224.485C368.254 227.004 371.659 228.424 375.213 228.438Z" fill="#CE9B78"/>
</g>
<g style="mix-blend-mode:multiply" opacity="0.44">
<path d="M236.455 344.177C234.242 342.067 231.535 340.55 228.585 339.766C225.635 338.982 222.536 338.957 219.573 339.691C216.674 340.483 214.03 342.019 211.901 344.148C209.772 346.277 208.231 348.926 207.429 351.834C205.346 360.193 206.515 369.034 210.697 376.557C213.031 380.672 216.319 384.162 220.281 386.731C228.777 394.935 243.045 397.287 251.05 386.731C262.214 372.345 248.109 353.475 236.455 344.177Z" fill="#CE9B78"/>
</g>
<g style="mix-blend-mode:multiply" opacity="0.44">
<path d="M258.67 456.909L258.18 456.526C256.503 454.306 254.309 452.535 251.791 451.366C249.272 450.198 246.507 449.669 243.737 449.826C240.968 449.983 238.279 450.82 235.907 452.265C233.535 453.71 231.553 455.717 230.134 458.112C228.6 460.598 227.698 463.425 227.508 466.344C227.318 469.263 227.846 472.184 229.045 474.849C230.415 478.045 232.7 480.759 235.608 482.648C238.517 484.538 241.919 485.516 245.383 485.46C246.16 485.567 246.947 485.567 247.724 485.46C249.809 486.644 252.164 487.266 254.559 487.266C256.954 487.266 259.308 486.644 261.393 485.46C263.098 484.383 264.57 482.974 265.724 481.316C266.877 479.658 267.688 477.785 268.11 475.807C268.531 473.829 268.554 471.786 268.176 469.799C267.799 467.812 267.03 465.921 265.913 464.238C264.064 461.291 261.591 458.788 258.67 456.909Z" fill="#CE9B78"/>
</g>
<g style="mix-blend-mode:multiply" opacity="0.44">
<path d="M182.271 215.967C183.878 214.554 184.938 212.617 185.266 210.497C185.647 209.394 185.719 208.207 185.476 207.065C185.233 205.923 184.684 204.869 183.887 204.018C183.091 203.167 182.077 202.552 180.957 202.238C179.837 201.924 178.653 201.924 177.533 202.238C175.299 202.587 173.257 203.71 171.76 205.411C170.399 206.828 169.639 208.72 169.639 210.689C169.639 212.658 170.399 214.55 171.76 215.967C172.388 216.527 173.083 217.005 173.83 217.389C174.432 218.235 175.342 218.807 176.362 218.981C177.382 219.155 178.429 218.917 179.276 218.319L180.474 217.28C181.131 216.928 181.735 216.487 182.271 215.967Z" fill="#CE9B78"/>
</g>
<g style="mix-blend-mode:multiply" opacity="0.44">
<path d="M137.829 256.935C138.035 258.406 138.538 259.82 139.305 261.089C140.073 262.359 141.09 263.458 142.295 264.32C143.154 265.137 144.104 265.853 145.126 266.453C149.039 268.48 153.574 268.93 157.805 267.71C162.037 266.49 165.644 263.692 167.89 259.889C168.935 258.337 169.794 256.666 170.449 254.912C173.079 251.485 174.323 247.187 173.935 242.878C173.492 240.785 172.594 238.815 171.306 237.11C170.018 235.405 168.371 234.007 166.483 233.014C164.595 232.022 162.513 231.46 160.384 231.368C158.255 231.277 156.132 231.659 154.166 232.486C148.208 234.863 143.167 239.1 139.79 244.574C138.609 246.367 137.824 248.392 137.486 250.515C137.148 252.637 137.265 254.807 137.829 256.881V256.935Z" fill="#CE9B78"/>
</g>
<g style="mix-blend-mode:multiply" opacity="0.44">
<path d="M188.916 255.02C191.039 255.02 193.075 254.173 194.577 252.665C196.078 251.157 196.921 249.112 196.921 246.98C196.921 244.847 196.078 242.802 194.577 241.294C193.075 239.786 191.039 238.939 188.916 238.939C186.793 238.939 184.757 239.786 183.255 241.294C181.754 242.802 180.911 244.847 180.911 246.98C180.911 249.112 181.754 251.157 183.255 252.665C184.757 254.173 186.793 255.02 188.916 255.02Z" fill="#CE9B78"/>
</g>
<g style="mix-blend-mode:multiply" opacity="0.44">
<path d="M208.189 320.437C209.478 322.81 211.249 324.884 213.388 326.524C215.528 328.164 217.987 329.333 220.606 329.955C225.205 331.031 230.039 330.348 234.166 328.04C237.143 326.261 239.647 323.783 241.463 320.82C242.917 318.377 243.864 315.665 244.248 312.845C244.632 310.025 244.444 307.156 243.696 304.411C242.852 301.586 241.386 298.988 239.407 296.811C237.427 294.633 234.984 292.931 232.26 291.831C229.763 290.763 227.077 290.212 224.363 290.212C221.649 290.212 218.963 290.763 216.467 291.831C213.848 292.924 211.581 294.723 209.918 297.031C208.255 299.338 207.261 302.063 207.045 304.903C206.058 307.412 205.647 310.112 205.845 312.802C206.043 315.492 206.845 318.102 208.189 320.437Z" fill="#CE9B78"/>
</g>
<g style="mix-blend-mode:multiply" opacity="0.44">
<path d="M239.612 336.522C239.601 338.461 240.164 340.359 241.228 341.976C242.293 343.594 243.811 344.857 245.592 345.607C247.372 346.356 249.333 346.558 251.228 346.186C253.122 345.815 254.864 344.886 256.233 343.519C257.602 342.152 258.536 340.408 258.916 338.507C259.297 336.606 259.107 334.635 258.371 332.843C257.635 331.051 256.385 329.518 254.781 328.44C253.177 327.362 251.29 326.786 249.36 326.786C246.797 326.828 244.35 327.865 242.532 329.681C240.715 331.496 239.668 333.948 239.612 336.522Z" fill="#CE9B78"/>
</g>
<g style="mix-blend-mode:multiply" opacity="0.44">
<path d="M263.086 364.195C264.934 364.195 266.707 363.458 268.015 362.145C269.322 360.832 270.056 359.051 270.056 357.194C270.056 355.337 269.322 353.557 268.015 352.244C266.707 350.931 264.934 350.193 263.086 350.193C261.237 350.193 259.464 350.931 258.157 352.244C256.849 353.557 256.115 355.337 256.115 357.194C256.115 359.051 256.849 360.832 258.157 362.145C259.464 363.458 261.237 364.195 263.086 364.195Z" fill="#CE9B78"/>
</g>
<g style="mix-blend-mode:multiply" opacity="0.44">
<path d="M153.678 340.625C155.328 337.054 155.892 333.074 155.301 329.183C154.711 325.291 152.991 321.661 150.357 318.746C148.732 317.052 146.659 315.859 144.383 315.307C142.106 314.754 139.72 314.866 137.504 315.628C134.789 316.614 132.445 318.422 130.796 320.803C129.148 323.184 128.276 326.02 128.301 328.92C128.247 331.333 129.103 333.677 130.697 335.483C130.744 336.441 130.871 337.392 131.078 338.328C131.824 340.626 133.219 342.657 135.093 344.173C136.967 345.69 139.239 346.627 141.633 346.871C144.028 347.114 146.441 346.653 148.579 345.544C150.718 344.436 152.489 342.726 153.678 340.625Z" fill="#CE9B78"/>
</g>
<g style="mix-blend-mode:multiply" opacity="0.44">
<path d="M199.914 344.233C202.015 344.062 203.974 343.104 205.403 341.548C206.832 339.992 207.625 337.953 207.625 335.837C207.625 333.72 206.832 331.681 205.403 330.125C203.974 328.57 202.015 327.611 199.914 327.441C197.814 327.611 195.854 328.57 194.425 330.125C192.996 331.681 192.203 333.72 192.203 335.837C192.203 337.953 192.996 339.992 194.425 341.548C195.854 343.104 197.814 344.062 199.914 344.233Z" fill="#CE9B78"/>
</g>
<g style="mix-blend-mode:multiply" opacity="0.44">
<path d="M170.831 397.834C168.64 396.606 166.147 396.026 163.641 396.162C161.135 396.297 158.719 397.142 156.672 398.6C154.673 400.2 153.21 402.376 152.478 404.835C151.329 407.124 151.114 409.774 151.879 412.219C152.773 415.674 154.932 418.663 157.924 420.588C159.615 421.586 161.453 422.306 163.37 422.721C165.931 423.31 168.61 423.1 171.049 422.12C173.341 421.215 175.261 419.557 176.494 417.416C177.408 415.764 177.984 413.945 178.19 412.067C178.395 410.189 178.226 408.288 177.692 406.476C176.61 402.809 174.149 399.71 170.831 397.834Z" fill="#CE9B78"/>
</g>
<g style="mix-blend-mode:multiply" opacity="0.44">
<path d="M479.231 354.567C480.357 354.567 481.438 354.118 482.234 353.318C483.031 352.518 483.478 351.432 483.478 350.301C483.478 349.169 483.031 348.084 482.234 347.284C481.438 346.484 480.357 346.035 479.231 346.035C478.104 346.035 477.024 346.484 476.227 347.284C475.43 348.084 474.983 349.169 474.983 350.301C474.983 351.432 475.43 352.518 476.227 353.318C477.024 354.118 478.104 354.567 479.231 354.567Z" fill="#CE9B78"/>
</g>
<g style="mix-blend-mode:multiply" opacity="0.44">
<path d="M474.546 273.018C496.329 273.018 496.329 238.832 474.546 238.832C452.763 238.832 452.599 273.018 474.546 273.018Z" fill="#CE9B78"/>
</g>
<g style="mix-blend-mode:multiply" opacity="0.44">
<path d="M477.433 286.417C477.422 288.27 477.959 290.083 478.976 291.629C479.992 293.174 481.443 294.381 483.143 295.098C484.844 295.814 486.718 296.007 488.528 295.652C490.338 295.298 492.003 294.411 493.31 293.105C494.618 291.799 495.51 290.133 495.874 288.317C496.238 286.501 496.057 284.618 495.354 282.906C494.65 281.193 493.457 279.729 491.924 278.699C490.392 277.669 488.589 277.119 486.745 277.119C484.298 277.161 481.961 278.152 480.225 279.885C478.489 281.619 477.489 283.96 477.433 286.417Z" fill="#CE9B78"/>
</g>
<g style="mix-blend-mode:multiply" opacity="0.44">
<path d="M458.753 238.775C460.963 238.775 463.082 237.893 464.645 236.324C466.207 234.754 467.085 232.626 467.085 230.406C467.085 228.187 466.207 226.058 464.645 224.489C463.082 222.919 460.963 222.038 458.753 222.038C456.543 222.038 454.424 222.919 452.861 224.489C451.299 226.058 450.421 228.187 450.421 230.406C450.421 232.626 451.299 234.754 452.861 236.324C454.424 237.893 456.543 238.775 458.753 238.775Z" fill="#CE9B78"/>
</g>
<g style="mix-blend-mode:multiply" opacity="0.44">
<path d="M372.11 246.324C372.11 245.996 372.11 245.722 371.729 245.394C371.369 244.679 370.89 244.032 370.313 243.48C368.385 241.754 365.923 240.749 363.342 240.635C361.637 240.649 359.965 241.104 358.486 241.957C357.007 242.81 355.773 244.031 354.901 245.503C354.089 246.873 353.564 248.394 353.358 249.974C353.152 251.554 353.27 253.16 353.703 254.693C354.086 256.064 354.755 257.338 355.666 258.429C356.578 259.519 357.71 260.402 358.989 261.018C360.267 261.635 361.662 261.97 363.079 262.001C364.497 262.033 365.905 261.76 367.209 261.202C368.444 260.718 369.565 259.982 370.503 259.04C371.44 258.099 372.173 256.972 372.655 255.732C373 254.894 373.22 254.009 373.308 253.106C373.576 251.953 373.607 250.758 373.401 249.592C373.196 248.426 372.756 247.314 372.11 246.324Z" fill="#CE9B78"/>
</g>
<g style="mix-blend-mode:multiply" opacity="0.44">
<path d="M377.065 394.446C375.889 394.572 374.801 395.131 374.011 396.015C373.22 396.898 372.783 398.044 372.783 399.232C372.783 400.42 373.22 401.566 374.011 402.449C374.801 403.333 375.889 403.891 377.065 404.018C378.241 403.891 379.329 403.333 380.119 402.449C380.91 401.566 381.347 400.42 381.347 399.232C381.347 398.044 380.91 396.898 380.119 396.015C379.329 395.131 378.241 394.572 377.065 394.446Z" fill="#CE9B78"/>
</g>
<g style="mix-blend-mode:multiply" opacity="0.44">
<path d="M445.681 367.753C444.468 367.753 443.304 368.237 442.446 369.099C441.588 369.961 441.106 371.129 441.106 372.348C441.106 373.566 441.588 374.735 442.446 375.597C443.304 376.458 444.468 376.942 445.681 376.942C446.894 376.942 448.058 376.458 448.916 375.597C449.773 374.735 450.255 373.566 450.255 372.348C450.255 371.129 449.773 369.961 448.916 369.099C448.058 368.237 446.894 367.753 445.681 367.753Z" fill="#CE9B78"/>
</g>
<g style="mix-blend-mode:multiply" opacity="0.44">
<path d="M420.304 315.735C417.851 315.92 415.559 317.028 413.886 318.839C412.213 320.65 411.284 323.029 411.284 325.499C411.284 327.969 412.213 330.348 413.886 332.158C415.559 333.969 417.851 335.078 420.304 335.262C422.756 335.078 425.049 333.969 426.721 332.158C428.394 330.348 429.324 327.969 429.324 325.499C429.324 323.029 428.394 320.65 426.721 318.839C425.049 317.028 422.756 315.92 420.304 315.735Z" fill="#CE9B78"/>
</g>
<g style="mix-blend-mode:multiply" opacity="0.44">
<path d="M414.806 315.297C416.024 315.168 417.151 314.591 417.97 313.677C418.789 312.763 419.243 311.577 419.243 310.347C419.243 309.117 418.789 307.931 417.97 307.016C417.151 306.102 416.024 305.525 414.806 305.397C413.588 305.525 412.461 306.102 411.642 307.016C410.822 307.931 410.369 309.117 410.369 310.347C410.369 311.577 410.822 312.763 411.642 313.677C412.461 314.591 413.588 315.168 414.806 315.297Z" fill="#CE9B78"/>
</g>
<g style="mix-blend-mode:multiply" opacity="0.44">
<path d="M385.287 329.133C384.194 329.255 383.185 329.777 382.452 330.599C381.719 331.422 381.314 332.487 381.314 333.591C381.314 334.695 381.719 335.76 382.452 336.582C383.185 337.405 384.194 337.927 385.287 338.049C386.379 337.927 387.388 337.405 388.122 336.582C388.855 335.76 389.26 334.695 389.26 333.591C389.26 332.487 388.855 331.422 388.122 330.599C387.388 329.777 386.379 329.255 385.287 329.133Z" fill="#CE9B78"/>
</g>
<g style="mix-blend-mode:multiply" opacity="0.44">
<path d="M497.472 331.759C497.146 330.823 496.688 329.939 496.111 329.134C495.325 328.123 494.336 327.289 493.208 326.688C492.08 326.086 490.839 325.73 489.565 325.642C488.291 325.555 487.012 325.737 485.813 326.179C484.614 326.62 483.521 327.31 482.605 328.204C481.4 329.489 480.581 331.09 480.244 332.823C479.907 334.555 480.065 336.348 480.699 337.995C480.699 338.706 481.244 339.362 481.571 340.018C482.017 340.786 482.546 341.502 483.15 342.152C484.416 343.448 486.02 344.358 487.779 344.777C488.977 345.072 490.223 345.113 491.438 344.898C492.652 344.682 493.809 344.214 494.834 343.525C495.859 342.835 496.729 341.939 497.39 340.892C498.05 339.846 498.486 338.673 498.67 337.448C498.844 335.474 498.426 333.493 497.472 331.759Z" fill="#CE9B78"/>
</g>
<g style="mix-blend-mode:multiply" opacity="0.44">
<path d="M468.719 354.076C470.563 351.746 471.686 348.922 471.947 345.957C472.208 342.991 471.597 340.014 470.189 337.394C469.314 335.736 468.104 334.28 466.635 333.12C465.167 331.96 463.473 331.121 461.663 330.658C459.852 330.194 457.966 330.116 456.123 330.428C454.281 330.741 452.524 331.436 450.966 332.471C449.267 333.147 447.728 334.172 446.446 335.479C445.04 337.055 443.998 338.923 443.396 340.951C442.794 342.979 442.647 345.115 442.964 347.207C443.282 349.298 444.056 351.293 445.233 353.049C446.409 354.804 447.958 356.276 449.768 357.358C452.776 359.246 456.371 359.955 459.867 359.35C463.363 358.745 466.514 356.867 468.719 354.076Z" fill="#CE9B78"/>
</g>
<g style="mix-blend-mode:multiply" opacity="0.44">
<path d="M476.016 370.43C473.087 369.737 470.007 370.145 467.357 371.578C465.573 372.54 464.071 373.955 463.001 375.681C461.384 377.796 460.436 380.349 460.278 383.01C460.194 384.863 460.512 386.712 461.207 388.431C461.903 390.149 462.96 391.696 464.308 392.965C465.556 394.231 467.085 395.183 468.77 395.744C470.454 396.305 472.246 396.458 474.001 396.192C475.73 395.963 477.388 395.354 478.856 394.409C480.325 393.464 481.567 392.205 482.497 390.722C483.944 388.496 484.702 385.888 484.675 383.229C484.565 380.625 483.915 378.073 482.769 375.735C482.047 374.448 481.079 373.316 479.92 372.406C478.761 371.495 477.434 370.824 476.016 370.43Z" fill="#CE9B78"/>
</g>
</g>
<g style="mix-blend-mode:multiply" opacity="0.23">
<g style="mix-blend-mode:multiply" opacity="0.23">
<g style="mix-blend-mode:multiply" opacity="0.23">
<path d="M273.484 476.214C273.027 477.189 272.698 478.218 272.504 479.277C271.875 478.475 271.202 477.708 270.489 476.98C265.582 472.23 259.06 469.531 252.245 469.432C250.581 469.433 248.921 469.598 247.29 469.924C247.138 468.392 246.413 466.974 245.26 465.959C244.108 464.943 242.614 464.406 241.081 464.455C239.822 464.459 238.591 464.829 237.536 465.52C236.481 466.211 235.647 467.194 235.135 468.35C234.623 469.505 234.454 470.785 234.649 472.035C234.844 473.285 235.395 474.451 236.235 475.394C235.521 475.833 234.831 476.307 234.165 476.816C230.938 480.043 228.622 484.073 227.455 488.494C226.288 492.915 226.31 497.568 227.521 501.977V502.578L230.081 508.759C231.636 511.703 233.925 514.191 236.725 515.979C238.242 517.521 240.111 518.666 242.17 519.316C245.202 520.919 248.606 521.675 252.027 521.504C256.552 521.312 260.978 520.117 264.988 518.003C270.583 514.386 274.758 508.936 276.806 502.578V501.977C277.758 498.41 277.943 494.681 277.35 491.037C277.676 491.27 278.022 491.471 278.385 491.639C279.704 492.234 281.133 492.541 282.578 492.541C284.024 492.541 285.453 492.234 286.772 491.639C288.121 491.321 289.389 490.724 290.496 489.886C291.602 489.047 292.522 487.987 293.198 486.771C294.376 484.641 294.813 482.176 294.438 479.768C294.063 477.36 292.898 475.147 291.128 473.48C289.857 472.335 288.348 471.488 286.711 470.999C285.074 470.511 283.35 470.393 281.662 470.655C279.974 470.916 278.365 471.551 276.951 472.512C275.537 473.473 274.353 474.738 273.484 476.214Z" fill="#C87E56"/>
</g>
<g style="mix-blend-mode:multiply" opacity="0.23">
<path d="M176.275 276.734C173.702 276.077 171.006 276.077 168.433 276.734C165.702 277.568 163.311 279.263 161.614 281.569C159.917 283.874 159.005 286.666 159.011 289.533C158.439 291.301 158.127 293.144 158.086 295.003C158.038 298.002 158.929 300.941 160.633 303.405C162.337 305.869 164.767 307.733 167.582 308.736C170.397 309.739 173.454 309.829 176.323 308.994C179.191 308.16 181.727 306.442 183.572 304.083C185.899 300.775 186.963 296.736 186.567 292.706C186.774 290.495 186.523 288.265 185.829 286.156C185.136 284.047 184.015 282.106 182.537 280.454L180.141 278.594C182.319 280.344 182.483 280.508 180.686 279.141C179.422 278.005 177.911 277.18 176.275 276.734Z" fill="#C87E56"/>
</g>
<g style="mix-blend-mode:multiply" opacity="0.23">
<path d="M246.578 168.378C247.917 168.346 249.217 167.918 250.314 167.147C251.412 166.377 252.259 165.298 252.749 164.046C253.24 162.794 253.351 161.425 253.071 160.11C252.79 158.794 252.129 157.592 251.171 156.652C250.213 155.712 249 155.077 247.684 154.826C246.368 154.575 245.008 154.72 243.773 155.242C242.539 155.764 241.485 156.64 240.744 157.76C240.003 158.881 239.608 160.196 239.607 161.541C239.614 162.451 239.801 163.35 240.156 164.187C240.51 165.024 241.027 165.783 241.675 166.418C242.323 167.054 243.09 167.554 243.931 167.891C244.773 168.227 245.672 168.393 246.578 168.378Z" fill="#C87E56"/>
</g>
<g style="mix-blend-mode:multiply" opacity="0.23">
<path d="M217.009 195.616C217.8 196.021 218.643 196.316 219.514 196.491C221.744 196.946 224.047 196.902 226.258 196.363C228.47 195.825 230.536 194.804 232.311 193.374C234.519 192.009 236.371 190.137 237.716 187.911C239.061 185.686 239.859 183.171 240.044 180.575C239.99 177.225 238.652 174.026 236.309 171.642C233.966 169.258 230.798 167.873 227.465 167.775C224.804 167.706 222.173 168.348 219.84 169.635C218.239 170.442 216.785 171.515 215.538 172.808C214.353 173.512 213.256 174.357 212.271 175.324C210.713 176.916 209.593 178.887 209.021 181.044C208.448 183.201 208.442 185.47 209.003 187.63C209.565 189.529 210.592 191.255 211.991 192.65C213.389 194.046 215.115 195.066 217.009 195.616Z" fill="#C87E56"/>
</g>
<g style="mix-blend-mode:multiply" opacity="0.23">
<path d="M245.871 175.489C245.405 177.172 245.568 178.969 246.328 180.54C247.089 182.112 248.395 183.35 250.001 184.022C251.607 184.694 253.402 184.754 255.048 184.19C256.695 183.625 258.079 182.476 258.941 180.959C259.867 179.304 260.117 177.353 259.64 175.517C259.162 173.681 257.994 172.102 256.382 171.113C255.428 170.565 254.362 170.243 253.266 170.173C252.169 170.103 251.071 170.286 250.056 170.709C249.042 171.131 248.137 171.782 247.411 172.611C246.685 173.439 246.159 174.424 245.871 175.489Z" fill="#C87E56"/>
</g>
<g style="mix-blend-mode:multiply" opacity="0.23">
<path d="M370.306 184.075C372.901 184.899 375.637 185.178 378.344 184.896C381.052 184.613 383.672 183.776 386.044 182.434C388.533 180.948 390.547 178.779 391.849 176.182C393.152 173.585 393.688 170.669 393.396 167.776C393.335 165.057 392.741 162.378 391.647 159.891C390.554 157.404 388.983 155.157 387.024 153.281C382.92 148.809 377.66 145.571 371.83 143.928C369.46 143.274 366.958 143.274 364.587 143.928C361.531 144.004 358.547 144.883 355.933 146.475C353.319 148.067 351.164 150.319 349.684 153.006C348.203 155.692 347.447 158.721 347.492 161.792C347.537 164.863 348.38 167.868 349.938 170.51C354.757 177.475 362.043 182.328 370.306 184.075Z" fill="#C87E56"/>
</g>
<g style="mix-blend-mode:multiply" opacity="0.23">
<path d="M418.994 191.956C420.682 193.061 422.515 193.927 424.439 194.526C426.49 195.118 428.659 195.162 430.732 194.654C432.804 194.145 434.709 193.102 436.257 191.627C437.582 190.336 438.535 188.708 439.014 186.917C439.493 185.127 439.481 183.239 438.98 181.454C438.725 180.598 438.378 179.773 437.945 178.992C437.012 177.079 435.482 175.523 433.588 174.562C432.941 173.794 432.25 173.063 431.519 172.374C430.427 171.426 429.261 170.566 428.034 169.803H427.652L426.727 169.092L425.474 168.217C423.452 167.042 421.058 166.693 418.786 167.243C416.515 167.792 414.542 169.199 413.276 171.171C412.049 172.433 411.177 173.998 410.747 175.708C410.316 177.418 410.343 179.211 410.825 180.907C412.314 185.366 415.175 189.234 418.994 191.956Z" fill="#C87E56"/>
</g>
<g style="mix-blend-mode:multiply" opacity="0.23">
<path d="M412.564 205.789C413.049 206.291 413.643 206.673 414.299 206.906C414.956 207.14 415.657 207.217 416.348 207.134C417.039 207.05 417.702 206.807 418.284 206.424C418.866 206.041 419.353 205.528 419.705 204.925C420.058 204.321 420.266 203.645 420.316 202.947C420.365 202.25 420.253 201.55 419.989 200.903C419.725 200.257 419.315 199.68 418.792 199.218C418.27 198.756 417.648 198.422 416.975 198.241L415.124 197.858C414.293 197.634 413.412 197.691 412.617 198.02C411.821 198.349 411.156 198.931 410.722 199.678C410.289 200.424 410.112 201.293 410.218 202.15C410.325 203.007 410.709 203.805 411.312 204.422L412.564 205.789Z" fill="#C87E56"/>
</g>
<g style="mix-blend-mode:multiply" opacity="0.23">
<path d="M465.445 345.541C470.12 342.829 473.587 338.427 475.139 333.234C476.488 328.944 476.488 324.341 475.139 320.052C474.271 316.691 472.343 313.703 469.643 311.534C466.944 309.365 463.618 308.131 460.163 308.018C457.142 308.012 454.179 308.848 451.603 310.431C449.026 312.015 446.937 314.285 445.568 316.989C444.199 319.804 443.687 322.962 444.098 326.068C443.31 329.672 443.31 333.404 444.098 337.008C444.639 339.094 445.667 341.021 447.097 342.628C448.527 344.236 450.318 345.478 452.321 346.252C454.417 347.147 456.69 347.549 458.965 347.426C461.24 347.302 463.457 346.658 465.445 345.541Z" fill="#C87E56"/>
</g>
<g style="mix-blend-mode:multiply" opacity="0.23">
<path d="M394.163 271.423C393.061 274.734 393.101 278.32 394.277 281.605C395.452 284.889 397.695 287.68 400.643 289.528C402.458 290.571 404.489 291.176 406.576 291.293C408.663 291.411 410.749 291.038 412.668 290.204C414.587 289.371 416.285 288.1 417.63 286.492C418.974 284.884 419.926 282.983 420.412 280.941C420.7 279.704 420.828 278.436 420.793 277.167C421.022 276.215 421.168 275.245 421.229 274.268C422.046 272.846 422.476 271.233 422.476 269.591C422.476 267.949 422.046 266.336 421.229 264.914C420.001 262.881 418.223 261.24 416.101 260.184C413.979 259.129 411.602 258.701 409.248 258.952C407.118 259.258 405.107 260.126 403.421 261.468C401.224 262.309 399.248 263.643 397.643 265.368C396.038 267.093 394.848 269.165 394.163 271.423Z" fill="#C87E56"/>
</g>
<g style="mix-blend-mode:multiply" opacity="0.23">
<path d="M418.941 224.606C416.861 224.606 414.867 225.436 413.396 226.913C411.925 228.39 411.099 230.393 411.099 232.482C411.099 234.571 411.925 236.574 413.396 238.052C414.867 239.529 416.861 240.359 418.941 240.359C421.021 240.359 423.015 239.529 424.486 238.052C425.957 236.574 426.783 234.571 426.783 232.482C426.783 230.393 425.957 228.39 424.486 226.913C423.015 225.436 421.021 224.606 418.941 224.606Z" fill="#C87E56"/>
</g>
<g style="mix-blend-mode:multiply" opacity="0.23">
<path d="M218.261 362.716C214.528 360.631 210.334 359.521 206.063 359.489C202.826 359.564 199.695 360.662 197.114 362.626C194.534 364.589 192.634 367.319 191.686 370.428C191.043 372.887 191.157 375.483 192.012 377.875C192.868 380.267 194.425 382.343 196.478 383.829C197.171 385.415 198.17 386.846 199.419 388.041C206.879 394.932 220.276 395.972 226.266 386.345C227.41 384.291 228.111 382.018 228.324 379.675C228.537 377.331 228.256 374.968 227.502 372.74C226.747 370.512 225.534 368.469 223.942 366.742C222.35 365.015 220.415 363.643 218.261 362.716Z" fill="#C87E56"/>
</g>
<g style="mix-blend-mode:multiply" opacity="0.23">
<path d="M189.398 374.639C188.872 373.246 188.118 371.952 187.165 370.81L186.784 370.263L186.457 369.88C184.839 368.3 182.67 367.417 180.412 367.419C178.509 367.443 176.641 367.931 174.967 368.841C173.156 369.946 171.745 371.604 170.942 373.573C170.138 375.541 169.984 377.717 170.501 379.78C170.445 380.069 170.445 380.366 170.501 380.655C170.804 383.201 172.102 385.522 174.109 387.107C176.116 388.692 178.667 389.411 181.202 389.106C183.737 388.802 186.047 387.498 187.625 385.482C189.203 383.467 189.919 380.904 189.616 378.358C189.616 380.491 189.289 380.656 189.616 378.796C189.921 377.416 189.846 375.979 189.398 374.639Z" fill="#C87E56"/>
</g>
<g style="mix-blend-mode:multiply" opacity="0.23">
<path d="M152.476 391.051C153.846 390.469 155.07 389.588 156.059 388.472C157.048 387.355 157.778 386.032 158.194 384.597C159.063 381.74 159.176 378.705 158.521 375.791C157.767 372.955 156.369 370.334 154.436 368.133C153.521 367.213 152.434 366.484 151.238 365.986C150.042 365.489 148.76 365.233 147.466 365.233C146.171 365.233 144.889 365.489 143.693 365.986C142.497 366.484 141.41 367.213 140.495 368.133C139.581 369.042 138.856 370.124 138.361 371.317C137.865 372.509 137.61 373.788 137.609 375.08C137.609 375.08 137.609 375.517 137.609 375.736C136.977 378.432 137.187 381.258 138.208 383.831C139.467 386.497 141.449 388.753 143.926 390.34C145.193 391.13 146.629 391.606 148.116 391.73C149.602 391.853 151.096 391.621 152.476 391.051Z" fill="#C87E56"/>
</g>
<g style="mix-blend-mode:multiply" opacity="0.23">
<path d="M281.327 418.235C281.864 418.341 282.392 418.487 282.906 418.673C284.662 419.182 286.513 419.267 288.307 418.922C290.102 418.576 291.79 417.81 293.234 416.685C294.678 415.56 295.837 414.108 296.616 412.448C297.396 410.788 297.773 408.966 297.719 407.132C297.427 401.73 295.402 396.568 291.946 392.418C289.261 389.067 286.33 385.923 283.179 383.01C281.541 381.438 279.521 380.326 277.321 379.787C275.12 379.247 272.817 379.299 270.643 379.936C268.469 380.573 266.5 381.774 264.934 383.418C263.368 385.062 262.26 387.091 261.722 389.3C260.497 395.425 261.605 401.788 264.826 407.132C267.876 412.875 274.356 419.11 281.327 418.235Z" fill="#C87E56"/>
</g>
<g style="mix-blend-mode:multiply" opacity="0.23">
<path d="M301.909 397.122C302.797 397.306 303.716 397.265 304.584 397.002C305.452 396.74 306.241 396.263 306.879 395.617C307.517 394.97 307.984 394.174 308.239 393.3C308.493 392.427 308.526 391.503 308.335 390.613C308.094 389.592 307.633 388.636 306.983 387.814C306.334 386.992 305.513 386.323 304.578 385.854C303.542 385.253 302.338 385.01 301.152 385.164C299.966 385.318 298.863 385.861 298.014 386.707C297.165 387.553 296.617 388.657 296.455 389.848C296.293 391.038 296.526 392.249 297.117 393.293C297.603 394.234 298.282 395.06 299.107 395.72C299.933 396.38 300.888 396.857 301.909 397.122Z" fill="#C87E56"/>
</g>
<g style="mix-blend-mode:multiply" opacity="0.23">
<path d="M309.751 396.685C307.918 396.844 306.21 397.687 304.966 399.05C303.722 400.412 303.032 402.193 303.032 404.041C303.032 405.89 303.722 407.671 304.966 409.033C306.21 410.395 307.918 411.239 309.751 411.398C311.585 411.239 313.292 410.395 314.537 409.033C315.781 407.671 316.471 405.89 316.471 404.041C316.471 402.193 315.781 400.412 314.537 399.05C313.292 397.687 311.585 396.844 309.751 396.685Z" fill="#C87E56"/>
</g>
<g style="mix-blend-mode:multiply" opacity="0.23">
<path d="M457.441 413.093C447.966 406.256 436.094 416.867 431.737 424.743C430.849 426.431 430.364 428.304 430.321 430.213C428.744 432.188 427.925 434.666 428.015 437.196C428.105 439.726 429.097 442.14 430.811 443.996C441.703 454.936 456.08 433.823 460.872 425.509C461.967 423.387 462.222 420.927 461.586 418.624C460.949 416.32 459.469 414.344 457.441 413.093Z" fill="#C87E56"/>
</g>
<g style="mix-blend-mode:multiply" opacity="0.23">
<path d="M309.752 160.116C311.277 159.972 312.694 159.261 313.725 158.123C314.756 156.985 315.327 155.502 315.327 153.963C315.327 152.424 314.756 150.941 313.725 149.803C312.694 148.665 311.277 147.954 309.752 147.81C308.226 147.954 306.81 148.665 305.779 149.803C304.748 150.941 304.176 152.424 304.176 153.963C304.176 155.502 304.748 156.985 305.779 158.123C306.81 159.261 308.226 159.972 309.752 160.116Z" fill="#C87E56"/>
</g>
<g style="mix-blend-mode:multiply" opacity="0.23">
<path d="M313.889 169.799C314.717 169.693 315.479 169.288 316.031 168.658C316.583 168.029 316.888 167.219 316.888 166.38C316.888 165.541 316.583 164.731 316.031 164.102C315.479 163.472 314.717 163.067 313.889 162.961C313.06 163.067 312.298 163.472 311.746 164.102C311.194 164.731 310.889 165.541 310.889 166.38C310.889 167.219 311.194 168.029 311.746 168.658C312.298 169.288 313.06 169.693 313.889 169.799Z" fill="#C87E56"/>
</g>
<g style="mix-blend-mode:multiply" opacity="0.23">
<path d="M322.82 163.235C324.177 163.235 325.479 162.694 326.439 161.729C327.399 160.765 327.939 159.457 327.939 158.094C327.939 156.73 327.399 155.422 326.439 154.458C325.479 153.494 324.177 152.952 322.82 152.952C321.462 152.952 320.16 153.494 319.2 154.458C318.24 155.422 317.701 156.73 317.701 158.094C317.701 159.457 318.24 160.765 319.2 161.729C320.16 162.694 321.462 163.235 322.82 163.235Z" fill="#C87E56"/>
</g>
<g style="mix-blend-mode:multiply" opacity="0.23">
<path d="M303.435 482.941C302.351 482.605 301.182 482.686 300.155 483.167C299.127 483.648 298.314 484.495 297.873 485.544C297.432 486.594 297.394 487.77 297.768 488.845C298.142 489.921 298.9 490.818 299.895 491.364C300.949 491.953 302.188 492.11 303.354 491.805C304.521 491.499 305.525 490.753 306.158 489.723C306.518 489.115 306.734 488.431 306.788 487.725C306.843 487.019 306.734 486.31 306.47 485.654C306.206 484.997 305.795 484.411 305.269 483.94C304.742 483.47 304.115 483.127 303.435 482.941Z" fill="#C87E56"/>
</g>
<g style="mix-blend-mode:multiply" opacity="0.23">
<path d="M301.53 466.749C300.183 466.749 298.867 467.15 297.748 467.901C296.628 468.653 295.756 469.72 295.24 470.97C294.725 472.219 294.59 473.594 294.853 474.92C295.116 476.246 295.764 477.464 296.716 478.421C297.668 479.377 298.881 480.028 300.202 480.292C301.522 480.556 302.891 480.42 304.135 479.903C305.378 479.385 306.442 478.509 307.19 477.385C307.938 476.26 308.337 474.938 308.337 473.586C308.295 471.786 307.565 470.071 306.297 468.798C305.029 467.524 303.322 466.791 301.53 466.749Z" fill="#C87E56"/>
</g>
<g style="mix-blend-mode:multiply" opacity="0.23">
<path d="M319.01 483.925C318.994 483.352 318.851 482.79 318.59 482.28C318.329 481.77 317.958 481.325 317.503 480.979C317.048 480.632 316.522 480.393 315.963 480.278C315.403 480.163 314.826 480.176 314.272 480.315H313.619C312.866 480.529 312.203 480.985 311.731 481.611C311.259 482.238 311.004 483.003 311.004 483.788C311.004 484.574 311.259 485.339 311.731 485.966C312.203 486.592 312.866 487.048 313.619 487.262H314.272C314.804 487.398 315.36 487.418 315.901 487.319C316.441 487.219 316.954 487.004 317.404 486.687C317.854 486.37 318.231 485.959 318.508 485.483C318.785 485.006 318.956 484.475 319.01 483.925Z" fill="#C87E56"/>
</g>
<g style="mix-blend-mode:multiply" opacity="0.23">
<path d="M137.175 295.109C138.579 296.429 140.318 297.337 142.202 297.733C144.085 298.13 146.04 297.999 147.855 297.356C149.669 296.713 151.273 295.582 152.492 294.086C153.71 292.59 154.496 290.787 154.765 288.873C155.153 287.243 155.354 285.572 155.364 283.896C155.418 283.186 155.418 282.473 155.364 281.763C155.364 281.051 154.982 278.317 155.091 279.848C155.065 277.377 154.135 275.002 152.477 273.175C150.768 271.369 148.422 270.309 145.942 270.221C143.848 270.24 141.797 270.817 139.998 271.893C138.199 272.97 136.717 274.507 135.704 276.348C134.687 278.08 134.053 280.013 133.847 282.014C133.64 284.015 133.865 286.037 134.506 287.943C134.405 289.261 134.591 290.584 135.052 291.822C135.513 293.06 136.238 294.181 137.175 295.109Z" fill="#C87E56"/>
</g>
<g style="mix-blend-mode:multiply" opacity="0.23">
<path d="M162.602 255.51H162.221C161.339 255.674 160.503 256.029 159.77 256.549C158.419 257.159 157.321 258.223 156.666 259.557C156.002 260.716 155.608 262.01 155.513 263.343C155.418 264.676 155.624 266.014 156.117 267.255C156.609 268.497 157.375 269.611 158.356 270.513C159.338 271.415 160.51 272.083 161.785 272.466C163.074 272.825 164.435 272.831 165.727 272.485C167.02 272.139 168.197 271.452 169.137 270.497L170.553 269.239C171.826 267.941 172.642 266.261 172.878 264.454C173.114 262.648 172.757 260.813 171.86 259.229C170.87 257.744 169.456 256.594 167.804 255.93C166.152 255.266 164.339 255.12 162.602 255.51Z" fill="#C87E56"/>
</g>
<g style="mix-blend-mode:multiply" opacity="0.23">
<path d="M151.824 247.086C150.606 247.215 149.479 247.792 148.659 248.706C147.84 249.62 147.387 250.806 147.387 252.036C147.387 253.266 147.84 254.453 148.659 255.367C149.479 256.281 150.606 256.858 151.824 256.986C153.041 256.858 154.169 256.281 154.988 255.367C155.807 254.453 156.261 253.266 156.261 252.036C156.261 250.806 155.807 249.62 154.988 248.706C154.169 247.792 153.041 247.215 151.824 247.086Z" fill="#C87E56"/>
</g>
<g style="mix-blend-mode:multiply" opacity="0.23">
<path d="M402.605 308.838C401.121 308.98 399.744 309.673 398.742 310.78C397.74 311.888 397.185 313.33 397.185 314.827C397.185 316.324 397.74 317.766 398.742 318.874C399.744 319.981 401.121 320.674 402.605 320.816C404.088 320.674 405.465 319.981 406.467 318.874C407.469 317.766 408.025 316.324 408.025 314.827C408.025 313.33 407.469 311.888 406.467 310.78C405.465 309.673 404.088 308.98 402.605 308.838Z" fill="#C87E56"/>
</g>
<g style="mix-blend-mode:multiply" opacity="0.23">
<path d="M445.839 246.65C444.048 246.807 442.38 247.633 441.165 248.964C439.95 250.296 439.276 252.036 439.276 253.843C439.276 255.649 439.95 257.389 441.165 258.721C442.38 260.052 444.048 260.878 445.839 261.035C447.631 260.878 449.299 260.052 450.514 258.721C451.729 257.389 452.403 255.649 452.403 253.843C452.403 252.036 451.729 250.296 450.514 248.964C449.299 247.633 447.631 246.807 445.839 246.65Z" fill="#C87E56"/>
</g>
<g style="mix-blend-mode:multiply" opacity="0.23">
<path d="M446.878 241.612C471.003 241.612 471.057 204.036 446.878 204.036C422.698 204.036 422.753 241.612 446.878 241.612Z" fill="#C87E56"/>
</g>
<g style="mix-blend-mode:multiply" opacity="0.23">
<path d="M394.219 212.352C392.406 212.993 390.89 214.28 389.959 215.97C389.029 217.659 388.748 219.633 389.171 221.516C389.595 223.4 390.692 225.061 392.254 226.186C393.817 227.31 395.737 227.819 397.648 227.615C399.56 227.411 401.33 226.51 402.623 225.081C403.917 223.653 404.642 221.797 404.663 219.866C404.683 217.936 403.997 216.065 402.734 214.609C401.471 213.153 399.72 212.214 397.813 211.97C399.978 211.286 401.813 209.819 402.961 207.853C404.11 205.888 404.49 203.563 404.028 201.332C403.565 199.1 402.294 197.121 400.461 195.778C398.627 194.436 396.362 193.825 394.105 194.065C391.849 194.306 389.762 195.38 388.249 197.079C386.737 198.778 385.907 200.982 385.922 203.261C385.936 205.54 386.793 207.732 388.326 209.412C389.859 211.093 391.96 212.14 394.219 212.352Z" fill="#C87E56"/>
</g>
<g style="mix-blend-mode:multiply" opacity="0.23">
<path d="M430.215 389.297C460.221 389.297 460.275 342.476 430.215 342.476C400.154 342.476 400.372 389.297 430.215 389.297Z" fill="#C87E56"/>
</g>
<g style="mix-blend-mode:multiply" opacity="0.23">
<path d="M417.035 400.839C414.887 400.751 412.772 401.387 411.026 402.646C409.279 403.905 408.002 405.714 407.396 407.785C405.495 406.134 403.047 405.256 400.534 405.324C386.756 405.324 386.702 426.875 400.534 426.875C402.746 426.957 404.921 426.29 406.709 424.98C408.497 423.67 409.794 421.795 410.391 419.655C412.239 421.238 414.607 422.076 417.035 422.006C430.595 422.116 430.65 400.839 417.035 400.839Z" fill="#C87E56"/>
</g>
<g style="mix-blend-mode:multiply" opacity="0.23">
<path d="M463.377 386.235C446.277 386.235 446.277 412.872 463.377 412.872C480.476 412.872 480.476 386.235 463.377 386.235Z" fill="#C87E56"/>
</g>
<g style="mix-blend-mode:multiply" opacity="0.23">
<path d="M503.023 325.797C482.656 325.797 482.601 357.576 503.023 357.576C523.445 357.576 523.445 325.797 503.023 325.797Z" fill="#C87E56"/>
</g>
<g style="mix-blend-mode:multiply" opacity="0.23">
<path d="M481.891 356.916C465.009 356.916 465.009 383.279 481.891 383.279C498.773 383.279 498.828 356.916 481.891 356.916Z" fill="#C87E56"/>
</g>
<g style="mix-blend-mode:multiply" opacity="0.23">
<path d="M346.998 476.816C343.572 476.854 340.179 477.502 336.978 478.73C338.323 477.579 339.349 476.097 339.955 474.429C340.561 472.761 340.727 470.964 340.436 469.213C340.146 467.462 339.409 465.816 338.297 464.435C337.185 463.055 335.736 461.988 334.092 461.337C336.372 460.775 338.399 459.462 339.85 457.608C341.3 455.755 342.092 453.466 342.097 451.108C342.097 448.294 340.984 445.595 339.003 443.605C337.021 441.615 334.334 440.497 331.532 440.497C328.73 440.497 326.043 441.615 324.062 443.605C322.08 445.595 320.967 448.294 320.967 451.108C321.033 453.352 321.783 455.521 323.118 457.322C324.453 459.122 326.307 460.466 328.428 461.172C326.179 461.862 324.248 463.332 322.978 465.32C321.709 467.307 321.185 469.684 321.499 472.024C321.813 474.364 322.945 476.516 324.693 478.095C326.442 479.675 328.692 480.578 331.042 480.645C331.694 480.704 332.35 480.704 333.002 480.645C330.475 481.963 328.161 483.66 326.141 485.677C320.939 491.423 317.896 498.813 317.536 506.571C317.555 514.402 320.647 521.909 326.141 527.465C331.682 533.003 339.181 536.112 346.998 536.112C354.815 536.112 362.314 533.003 367.856 527.465C373.058 521.719 376.101 514.329 376.46 506.571C376.441 498.74 373.349 491.233 367.856 485.677C362.281 480.163 354.821 476.993 346.998 476.816Z" fill="#C87E56"/>
</g>
<g style="mix-blend-mode:multiply" opacity="0.23">
<path d="M193.539 431.47H192.668C196.482 427.656 198.653 422.49 198.713 417.085C198.697 411.735 196.584 406.606 192.831 402.809C189.004 399.118 183.923 397.025 178.618 396.956C173.3 397.018 168.21 399.133 164.404 402.864C160.666 406.67 158.556 411.793 158.523 417.14C158.523 417.468 158.523 417.741 158.523 418.069C143.166 418.069 143.111 442.027 158.523 442.027C160.826 442.106 163.094 441.45 165.003 440.153C166.911 438.855 168.36 436.984 169.142 434.807C171.085 435.858 173.18 436.596 175.35 436.995C153.567 452.529 159.666 495.739 193.539 495.739C234.764 495.739 234.819 431.47 193.539 431.47Z" fill="#C87E56"/>
</g>
<g style="mix-blend-mode:multiply" opacity="0.23">
<path d="M141.585 359.762C142.208 361.077 143.2 362.18 144.438 362.938C145.676 363.696 147.107 364.075 148.555 364.029C150.722 364.029 152.8 363.164 154.332 361.626C155.864 360.087 156.724 358 156.724 355.824C156.724 353.648 155.864 351.561 154.332 350.023C152.8 348.484 150.722 347.62 148.555 347.62H148.229C149.099 345.052 149.487 342.344 149.372 339.634C149.372 338.759 149.372 337.884 149.372 337.063C150.215 338.093 151.281 338.915 152.49 339.465C153.698 340.015 155.017 340.279 156.343 340.236C158.827 340.236 161.21 339.244 162.966 337.48C164.723 335.716 165.71 333.323 165.71 330.828C165.71 328.333 164.723 325.94 162.966 324.175C161.21 322.411 158.827 321.42 156.343 321.42C154.141 321.201 151.941 321.849 150.204 323.226C148.467 324.603 147.33 326.602 147.031 328.804C145.68 324.87 143.4 321.323 140.387 318.466C134.722 312.969 127.188 309.84 119.311 309.715C111.428 309.807 103.883 312.941 98.2362 318.466C95.3712 321.07 93.2473 324.393 92.0824 328.093C90.2028 331.637 89.3004 335.622 89.4684 339.634C89.5207 347.554 92.6695 355.137 98.2362 360.747C103.831 366.352 111.41 369.499 119.311 369.499C127.213 369.499 134.792 366.352 140.387 360.747L141.585 359.762Z" fill="#C87E56"/>
</g>
<g style="mix-blend-mode:multiply" opacity="0.23">
<path d="M185.587 348.932C185.492 346.061 184.314 343.334 182.292 341.302C180.269 339.271 177.554 338.088 174.695 337.992C172.541 337.992 170.436 338.634 168.644 339.836C166.853 341.038 165.457 342.747 164.633 344.745C163.809 346.744 163.593 348.944 164.013 351.066C164.433 353.188 165.471 355.137 166.994 356.667C168.517 358.197 170.458 359.239 172.571 359.661C174.683 360.083 176.873 359.866 178.863 359.038C180.854 358.21 182.555 356.808 183.751 355.009C184.948 353.21 185.587 351.095 185.587 348.932Z" fill="#C87E56"/>
</g>
<g style="mix-blend-mode:multiply" opacity="0.23">
<path d="M147.739 399.414C145.934 399.414 144.203 400.135 142.926 401.417C141.649 402.699 140.932 404.438 140.932 406.252C140.932 408.065 141.649 409.804 142.926 411.086C144.203 412.368 145.934 413.089 147.739 413.089C149.545 413.089 151.276 412.368 152.553 411.086C153.829 409.804 154.547 408.065 154.547 406.252C154.547 404.438 153.829 402.699 152.553 401.417C151.276 400.135 149.545 399.414 147.739 399.414Z" fill="#C87E56"/>
</g>
<g style="mix-blend-mode:multiply" opacity="0.23">
<path d="M121.437 296.312C122.592 296.323 123.724 295.989 124.689 295.353C125.654 294.716 126.41 293.806 126.859 292.738C127.309 291.669 127.432 290.491 127.213 289.352C126.994 288.213 126.444 287.165 125.631 286.341C124.818 285.517 123.78 284.954 122.648 284.724C121.517 284.494 120.342 284.606 119.274 285.048C118.206 285.489 117.293 286.239 116.65 287.203C116.008 288.166 115.664 289.3 115.664 290.46C115.678 291.998 116.289 293.47 117.367 294.563C118.445 295.656 119.905 296.284 121.437 296.312Z" fill="#C87E56"/>
</g>
<g style="mix-blend-mode:multiply" opacity="0.23">
<path d="M189.667 277.554C192.519 279.145 195.804 279.774 199.038 279.351C202.273 278.928 205.287 277.474 207.638 275.202C209.086 273.858 210.252 272.237 211.065 270.433C211.879 268.629 212.325 266.68 212.376 264.701C212.378 262.79 212.003 260.898 211.274 259.133C210.545 257.368 209.476 255.766 208.128 254.417C206.011 252.344 203.329 250.946 200.421 250.401C197.514 249.856 194.511 250.188 191.791 251.354C189.103 252.456 186.8 254.332 185.172 256.746C183.544 259.16 182.663 262.004 182.642 264.919C182.718 267.437 183.396 269.899 184.618 272.098C185.841 274.297 187.573 276.169 189.667 277.554Z" fill="#C87E56"/>
</g>
<g style="mix-blend-mode:multiply" opacity="0.23">
<path d="M154.328 234.722C156.98 234.733 159.575 233.953 161.785 232.481C163.996 231.009 165.721 228.911 166.743 226.454C167.766 223.996 168.039 221.289 167.528 218.675C167.017 216.062 165.746 213.659 163.874 211.772C162.003 209.884 159.616 208.597 157.016 208.074C154.416 207.55 151.719 207.813 149.268 208.83C146.817 209.847 144.722 211.572 143.247 213.785C141.773 215.999 140.985 218.603 140.985 221.267C141.014 224.817 142.427 228.215 144.921 230.73C147.416 233.246 150.793 234.679 154.328 234.722Z" fill="#C87E56"/>
</g>
<g style="mix-blend-mode:multiply" opacity="0.23">
<path d="M482.223 261.14C478.021 263.248 474.492 266.498 472.037 270.52C469.582 274.542 468.3 279.176 468.336 283.894C466.709 282.86 464.816 282.327 462.891 282.362C460.233 282.362 457.684 283.422 455.805 285.31C453.926 287.197 452.87 289.757 452.87 292.426C452.87 295.095 453.926 297.655 455.805 299.543C457.684 301.43 460.233 302.491 462.891 302.491C464.585 302.568 466.267 302.162 467.741 301.32C469.215 300.478 470.423 299.234 471.223 297.732C473.224 301.778 476.342 305.162 480.204 307.48C484.066 309.797 488.509 310.951 493.006 310.804C522.141 310.804 525.681 271.094 503.897 261.14C519.854 251.513 516.205 220.937 493.006 220.937C469.807 220.937 466.267 251.513 482.223 261.14Z" fill="#C87E56"/>
</g>
<g style="mix-blend-mode:multiply" opacity="0.23">
<path d="M475.195 217.112C476.721 216.968 478.137 216.257 479.168 215.119C480.199 213.981 480.771 212.498 480.771 210.959C480.771 209.42 480.199 207.937 479.168 206.799C478.137 205.661 476.721 204.95 475.195 204.806C473.67 204.95 472.253 205.661 471.222 206.799C470.191 207.937 469.62 209.42 469.62 210.959C469.62 212.498 470.191 213.981 471.222 215.119C472.253 216.257 473.67 216.968 475.195 217.112Z" fill="#C87E56"/>
</g>
<g style="mix-blend-mode:multiply" opacity="0.23">
<path d="M415.781 316.884C415.781 319.588 416.579 322.232 418.075 324.481C419.571 326.729 421.697 328.482 424.185 329.517C426.673 330.552 429.41 330.823 432.051 330.295C434.692 329.767 437.118 328.465 439.022 326.553C440.926 324.64 442.223 322.204 442.748 319.551C443.274 316.899 443.004 314.149 441.973 311.651C440.943 309.152 439.198 307.016 436.959 305.514C434.72 304.011 432.088 303.209 429.395 303.209C425.806 303.279 422.384 304.743 419.846 307.292C417.307 309.841 415.85 313.279 415.781 316.884Z" fill="#C87E56"/>
</g>
<g style="mix-blend-mode:multiply" opacity="0.23">
<path d="M301.148 466.364C327.233 466.364 327.288 425.724 301.148 425.724C275.008 425.724 275.062 466.364 301.148 466.364Z" fill="#C87E56"/>
</g>
<g style="mix-blend-mode:multiply" opacity="0.23">
<path d="M357.838 469.044C373.358 469.044 373.413 444.758 357.838 444.758C342.263 444.758 342.208 469.044 357.838 469.044Z" fill="#C87E56"/>
</g>
<g style="mix-blend-mode:multiply" opacity="0.23">
<path d="M391.276 462.537C375.919 462.537 375.919 486.44 391.276 486.44C406.633 486.44 406.633 462.537 391.276 462.537Z" fill="#C87E56"/>
</g>
<g style="mix-blend-mode:multiply" opacity="0.23">
<path d="M244.019 417.411C221.855 417.411 221.855 451.925 244.019 451.925C266.184 451.925 266.184 417.411 244.019 417.411Z" fill="#C87E56"/>
</g>
<g style="mix-blend-mode:multiply" opacity="0.23">
<path d="M375.212 351.5C370.079 351.502 365.137 353.457 361.38 356.97C357.722 360.66 355.668 365.655 355.668 370.863C355.668 376.07 357.722 381.066 361.38 384.756C365.148 388.251 370.083 390.202 375.212 390.226C377.782 390.233 380.327 389.73 382.702 388.746C385.077 387.761 387.236 386.315 389.052 384.49C390.869 382.666 392.309 380.498 393.289 378.112C394.269 375.727 394.77 373.17 394.763 370.589C394.834 365.42 392.877 360.43 389.317 356.696C385.446 353.222 380.401 351.364 375.212 351.5Z" fill="#C87E56"/>
</g>
<g style="mix-blend-mode:multiply" opacity="0.23">
<path d="M321.625 410.412C321.673 417.422 324.449 424.136 329.358 429.119C331.811 431.583 334.723 433.538 337.928 434.871C341.133 436.205 344.568 436.891 348.037 436.891C351.507 436.891 354.942 436.205 358.147 434.871C361.352 433.538 364.264 431.583 366.717 429.119C371.397 423.986 374.134 417.365 374.45 410.412C374.365 403.394 371.596 396.676 366.717 391.651C361.742 386.714 355.031 383.946 348.037 383.946C341.044 383.946 334.333 386.714 329.358 391.651C326.854 393.987 324.98 396.923 323.913 400.184C322.281 403.337 321.493 406.861 321.625 410.412Z" fill="#C87E56"/>
</g>
<g style="mix-blend-mode:multiply" opacity="0.23">
<path d="M377.88 424.962C362.795 424.962 362.741 448.537 377.88 448.537C393.019 448.537 393.074 424.962 377.88 424.962Z" fill="#C87E56"/>
</g>
</g>
</g>
<g style="mix-blend-mode:multiply" opacity="0.6">
<path d="M449.493 179.208C473.048 219.816 481.031 267.664 471.94 313.766C462.85 359.867 437.313 401.048 400.126 429.573C362.939 458.097 316.662 472.002 269.988 468.676C223.314 465.349 179.455 445.02 146.651 411.507C160.33 435.209 178.877 455.713 201.06 471.655C223.243 487.596 248.552 498.61 275.302 503.962C302.053 509.315 329.632 508.883 356.203 502.696C382.775 496.51 407.73 484.71 429.407 468.082C451.085 451.454 468.988 430.379 481.924 406.261C494.861 382.142 502.535 355.533 504.435 328.203C506.335 300.874 502.418 273.451 492.945 247.761C483.471 222.071 468.659 198.701 449.493 179.208Z" fill="#DDC3A3"/>
</g>
<g style="mix-blend-mode:multiply" opacity="0.25">
<path d="M436.97 167.561C453.159 207.557 455.522 251.852 443.681 293.357C431.839 334.862 406.478 371.178 371.655 396.492C336.832 421.807 294.561 434.657 251.607 432.987C208.652 431.316 167.497 415.222 134.727 387.278C145.692 414.367 162.645 438.598 184.304 458.14C205.963 477.681 231.761 492.021 259.749 500.076C287.737 508.132 317.182 509.691 345.858 504.637C374.534 499.582 401.691 488.047 425.276 470.901C448.861 453.756 468.256 431.45 481.997 405.669C495.737 379.889 503.462 351.308 504.589 322.088C505.715 292.868 500.213 263.773 488.499 237.002C476.784 210.232 459.164 186.486 436.97 167.561Z" fill="#DDC3A3"/>
</g>
<g style="mix-blend-mode:screen" opacity="0.27">
<path d="M473.783 209.184C456.435 182.436 432.743 160.437 404.835 145.161C376.927 129.886 345.677 121.813 313.894 121.669H312.86C309.919 121.669 306.978 121.669 304.092 121.669H301.805C299.082 121.669 296.359 122.052 293.691 122.325H293.092C290.26 122.325 287.646 122.982 284.651 123.365L282.363 123.748L275.12 125.006L273.868 125.279C271.199 125.826 268.422 126.428 265.917 127.084L263.466 127.74C261.342 128.342 259.273 128.889 257.204 129.545L255.298 130.092L247.946 132.608L245.168 133.648L239.614 136.054L237 137.148C234.821 138.078 232.589 139.063 230.41 140.102L227.252 141.688L223.167 143.767L220.009 145.462L214.345 148.635L210.751 150.823L207.756 152.737C205.196 154.433 202.637 156.183 200.132 158.207L199.042 158.972L195.067 161.981L193.161 163.512C188.804 166.958 184.611 170.623 180.581 174.452L179.492 175.491C175.299 179.538 171.269 183.805 167.402 188.235L166.967 188.837C162.991 193.431 159.234 198.245 155.694 203.222C132.284 236.49 119.974 276.354 120.532 317.089C121.09 357.823 134.486 397.332 158.798 429.941C139.69 400.571 128.941 366.513 127.712 331.45C126.483 296.388 134.822 261.655 151.827 231.008C165.495 252.126 186.733 267.148 211.134 272.959C235.535 278.77 261.226 274.923 282.879 262.216C304.531 249.51 320.483 228.919 327.424 204.715C334.365 180.512 331.763 154.554 320.157 132.226C349.956 132.185 379.355 139.119 406.022 152.478C432.688 165.836 455.889 185.252 473.783 209.184Z" fill="#DDC3A3"/>
</g>
<g style="mix-blend-mode:screen" opacity="0.68">
<path d="M469.427 203.332C498.313 245.481 509.346 297.428 500.098 347.747C490.85 398.067 462.079 442.635 420.115 471.648C378.15 500.661 326.429 511.742 276.33 502.454C226.231 493.166 181.857 464.269 152.971 422.12C167.274 442.99 185.529 460.826 206.695 474.61C227.861 488.393 251.523 497.855 276.33 502.454C301.137 507.053 326.602 506.7 351.273 501.414C375.943 496.128 399.336 486.014 420.115 471.648C440.893 457.282 458.652 438.946 472.375 417.687C486.099 396.429 495.519 372.663 500.098 347.747C504.677 322.832 504.325 297.255 499.063 272.476C493.8 247.697 483.73 224.202 469.427 203.332Z" fill="#DDC3A3"/>
</g>
<g style="mix-blend-mode:overlay" opacity="0.46">
<path d="M120.731 304.684C143.853 337.871 178.929 360.715 218.529 368.379C258.13 376.042 299.145 367.923 332.889 345.741C366.633 323.559 390.455 289.055 399.311 249.538C408.166 210.021 401.36 168.594 380.333 134.03C352.041 123.338 321.636 119.5 291.59 122.828C261.544 126.156 232.703 136.556 207.41 153.182C182.117 169.809 161.086 192.194 146.025 218.518C130.964 244.843 122.298 274.364 120.731 304.684Z" fill="#DDC3A3"/>
</g>
<path style="mix-blend-mode:color-dodge" opacity="0.68" d="M263.083 298.831C309.07 298.831 346.349 261.436 346.349 215.308C346.349 169.18 309.07 131.786 263.083 131.786C217.096 131.786 179.817 169.18 179.817 215.308C179.817 261.436 217.096 298.831 263.083 298.831Z" fill="url(#paint1_radial_3_6134)"/>
<g style="mix-blend-mode:multiply" opacity="0.42">
<g style="mix-blend-mode:multiply" opacity="0.42">
<path style="mix-blend-mode:multiply" opacity="0.42" d="M326.041 238.936C337.913 273.122 370.86 270.113 368.137 305.393C365.414 340.673 349.185 378.031 381.642 387.439C414.099 396.846 446.992 396.792 482.444 371.029C489.415 365.943 496.331 355.167 502.92 341.055C504.143 332.229 504.761 323.329 504.772 314.418C504.767 270.552 489.865 227.999 462.527 193.789C435.19 159.579 397.052 135.758 354.413 126.26C332.902 161.813 316.674 211.971 326.041 238.936Z" fill="url(#paint2_linear_3_6134)"/>
</g>
<g style="mix-blend-mode:multiply" opacity="0.42">
<path style="mix-blend-mode:multiply" opacity="0.42" d="M321.306 431.195C307.146 372.232 237.004 357.19 199.211 365.012C168.387 371.411 142.356 349.533 120.954 327.162C123.354 363.347 135.858 398.12 157.031 427.496C178.204 456.871 207.191 479.659 240.667 493.248C274.144 506.837 310.755 510.675 346.304 504.325C381.853 497.974 414.9 481.69 441.658 457.34C399.507 465.326 330.781 471.671 321.306 431.195Z" fill="url(#paint3_linear_3_6134)"/>
</g>
</g>
<path style="mix-blend-mode:screen" opacity="0.49" d="M487.669 234.183C488.729 278.806 474.367 322.421 447.026 357.609C419.685 392.798 381.053 417.389 337.699 427.2C294.345 437.011 248.946 431.437 209.222 411.425C169.498 391.413 137.901 358.2 119.805 317.432C120.523 345.973 127.534 373.998 140.332 399.49C153.131 424.982 171.398 447.306 193.82 464.855C216.241 482.403 242.258 494.739 269.997 500.974C297.735 507.21 326.506 507.189 354.235 500.913C381.965 494.638 407.964 482.264 430.36 464.684C452.756 447.103 470.992 424.752 483.754 399.242C496.516 373.731 503.486 345.696 504.163 317.154C504.84 288.613 499.207 260.275 487.669 234.183Z" fill="url(#paint4_linear_3_6134)"/>
<path style="mix-blend-mode:screen" opacity="0.49" d="M390.515 136.986C420.927 169.43 439.222 211.445 442.295 255.899C445.368 300.352 433.028 344.504 407.372 380.858C381.715 417.212 344.323 443.527 301.543 455.336C258.763 467.144 213.233 463.719 172.682 445.641C192.176 466.496 216.042 482.738 242.552 493.193C269.063 503.648 297.555 508.055 325.969 506.093C354.383 504.132 382.007 495.853 406.845 481.853C431.682 467.854 453.11 448.485 469.581 425.148C486.051 401.81 497.151 375.088 502.078 346.913C507.005 318.739 505.635 289.817 498.068 262.239C490.502 234.661 476.927 209.117 458.326 187.455C439.725 165.793 416.562 148.554 390.515 136.986Z" fill="url(#paint5_linear_3_6134)"/>
<defs>
<linearGradient id="paint0_linear_3_6134" x1="176.825" y1="178.062" x2="449.651" y2="449.697" gradientUnits="userSpaceOnUse">
<stop stop-color="#FF0000"/>
<stop offset="1" stop-color="#957635"/>
</linearGradient>
<radialGradient id="paint1_radial_3_6134" cx="0" cy="0" r="1" gradientUnits="userSpaceOnUse" gradientTransform="translate(262.811 215.308) scale(83.1574 83.5223)">
<stop stop-color="#ECECEC"/>
<stop offset="0.47" stop-color="#F1F1F1"/>
<stop offset="1" stop-color="white"/>
</radialGradient>
<linearGradient id="paint2_linear_3_6134" x1="323.318" y1="259.83" x2="504.772" y2="259.83" gradientUnits="userSpaceOnUse">
<stop stop-color="#FF0000"/>
<stop offset="1" stop-color="#957635"/>
</linearGradient>
<linearGradient id="paint3_linear_3_6134" x1="120.954" y1="417.193" x2="441.658" y2="417.193" gradientUnits="userSpaceOnUse">
<stop stop-color="#FF0000"/>
<stop offset="1" stop-color="#957635"/>
</linearGradient>
<linearGradient id="paint4_linear_3_6134" x1="294.17" y1="237.171" x2="357.83" y2="501.462" gradientUnits="userSpaceOnUse">
<stop offset="0.24" stop-color="white"/>
<stop offset="0.92" stop-color="white"/>
<stop offset="1" stop-color="white"/>
</linearGradient>
<linearGradient id="paint5_linear_3_6134" x1="248.13" y1="268.81" x2="470.865" y2="421.512" gradientUnits="userSpaceOnUse">
<stop offset="0.24" stop-color="white"/>
<stop offset="0.92" stop-color="white"/>
<stop offset="1" stop-color="white"/>
</linearGradient>
</defs>
</svg>
